<svg width="423" height="807" viewBox="0 0 423 807" fill="none" xmlns="http://www.w3.org/2000/svg">
<path d="M327.24 499.134C327.906 489.76 331.453 480.734 330.626 471.24C327.706 484.84 325.36 499.347 315.88 510.214C315.733 498.147 316.413 486.08 316.72 474.027C314.773 486.64 311.72 499.093 310.186 511.787C309.786 506.48 309.173 501.187 307.693 496.067C305.906 505.374 307.733 514.947 306.24 524.253C300.04 535.88 290.24 545.2 283.68 556.68L283.426 557.667C283.28 558.174 283.013 559.187 282.866 559.68C291.666 547.254 299.626 533.827 310.88 523.48C309.8 523.534 307.653 523.64 306.56 523.707C311.36 515.387 320.893 512.24 327.426 505.707C327.906 505.067 328.853 503.76 329.32 503.093C328.786 502.107 327.76 500.12 327.24 499.134Z" fill="#85AA6C"/>
<path d="M94.3727 429.627C93.7061 439.747 92.9727 449.893 90.8394 459.84C88.0927 456.267 85.3193 452.68 82.0926 449.493L79.8794 447.333C79.626 448.427 79.1593 450.627 78.9326 451.72C81.5726 455.827 84.4394 459.8 87.1061 463.933C94.4794 465.52 92.106 476.947 100.346 477.507C106.213 463.867 108.039 448.613 107.173 433.84C104.493 444.92 103.306 456.427 99.1727 467.133C98.7061 470.64 92.2394 469.92 94.3727 465.76C94.8394 460.227 95.9193 454.773 96.0527 449.267C95.7993 442.68 95.1461 436.147 94.3727 429.627Z" fill="#93B77C"/>
<path d="M229.373 477.787C226.919 480.613 224.252 483.267 221.812 486.12C224.399 491.107 227.132 496.027 229.932 500.933C229.879 498.947 229.813 496.973 229.773 495.027C229.773 494.04 229.773 492.093 229.773 491.107C229.706 486.64 229.453 482.2 229.373 477.787Z" fill="#CBDABE"/>
<path d="M301.746 68.0133C300.026 73.7333 297.933 79.3466 296.066 85.0266C297.346 84.8799 299.92 84.5867 301.2 84.4667C304.186 80.6 307.213 76.7867 309.746 72.64C306.96 71.32 304.146 69.9867 301.746 68.0133Z" fill="#B3C776"/>
<path d="M291.666 -9.15527e-05C287.199 3.73324 288.186 10.0399 287.279 15.2132C280.786 15.3999 280.826 7.37324 275.973 4.93324C272.946 9.74657 273.666 15.4265 274.773 20.7065C272.386 20.3332 269.999 19.9466 267.586 19.5999C267.133 21.0132 266.666 22.4665 266.199 23.9065L267.626 25.3732C271.106 28.5865 272.866 32.9998 274.546 37.3198C275.466 36.1732 276.413 35.0398 277.333 33.9198C277.479 32.0132 277.773 28.2265 277.919 26.3198C278.039 23.8665 278.186 21.4398 278.333 19.0265C280.039 23.6398 281.586 28.3332 283.706 32.7732C286.173 32.0399 288.559 31.0132 290.973 30.1065C292.586 33.9465 294.173 37.7999 295.746 41.6799C298.466 38.0665 301.253 34.5598 304.213 31.1598C305.279 23.8398 305.746 16.4532 305.999 9.07986C306.386 22.6265 306.013 36.1865 305.573 49.7198C305.946 53.3865 306.439 57.0399 306.919 60.7065C308.679 60.9065 312.199 61.3331 313.959 61.5598C314.413 60.0665 315.319 57.1198 315.773 55.6532C318.253 46.1465 321.306 36.7732 325.146 27.7198C325.879 40.8798 324.413 54.5998 317.159 65.9598C314.146 71.6398 311.519 77.5065 309.573 83.6265C315.613 78.9065 320.386 72.8932 324.719 66.6799L325.773 66.2132C333.399 63.3199 330.786 54.0799 328.133 48.5065C329.333 40.3732 329.626 31.9998 326.866 24.1198C324.093 20.8665 319.839 19.3066 316.306 16.9999C315.359 23.3599 314.959 29.8132 313.959 36.2132C313.226 24.8265 314.159 12.6399 306.919 2.97321C302.773 8.65321 300.959 15.6132 297.026 21.4399C293.946 14.6532 293.479 7.1199 291.666 -9.15527e-05Z" fill="#F6F8E7"/>
<path d="M159.053 20.7598C158.106 14.0399 157.146 7.18655 154.066 1.05321C151.652 5.90655 150.719 11.2799 149.799 16.5733C147.132 15.5333 144.453 14.5066 141.786 13.4799C140.639 15.0399 139.506 16.6399 138.359 18.2532C136.053 14.6665 133.239 11.3332 128.919 10.2932C129.893 22.3199 132.506 34.1732 132.906 46.2932C130.079 44.1732 127.253 42.0398 124.373 39.9599C122.013 48.8665 126.479 57.9732 130.239 65.8532C131.479 65.9999 133.973 66.3333 135.226 66.5066C132.199 60.1333 129.706 53.5333 127.213 46.9333C131.706 56.84 136.053 67.0933 143.546 75.2C145.933 73.1733 147.612 70.5733 149.066 67.8399C140.306 53.8133 136.386 37.4398 133.559 21.3599C136.506 27.7865 139.066 34.3999 141.159 41.1733C142.333 37.9866 143.506 34.7999 144.639 31.6265C147.213 36.3332 149.852 41.0532 152.666 45.6132C155.346 36.2532 153.986 26.4665 154.759 16.8932C156.039 21.4132 157.066 26.0266 157.519 30.7333C159.013 40.4266 161.973 49.8265 163.586 59.4932L164.399 64.4265C170.532 52.9332 167.293 39.2532 168.986 26.7598C168.546 22.4398 168.573 18.1065 168.906 13.7865C172.359 20.7465 172.919 29.1733 178.559 34.9333C179.213 32.1066 179.919 29.2933 180.693 26.5333C181.559 32.6 181.919 38.7466 181.932 44.9066C183.292 41.5466 184.906 38.3066 186.506 35.0799C187.426 39.9866 188.079 44.9066 188.599 49.8666C190.132 48.7866 191.653 47.7066 193.159 46.6399C193.479 48.0666 194.146 50.9199 194.466 52.3466C195.612 50.1866 196.773 48.0265 197.919 45.8932C198.106 47.6932 198.493 51.2932 198.679 53.0799C201.573 46.4132 202.786 38.8266 199.893 31.9333C197.653 33.4 195.426 34.8933 193.159 36.4C187.693 30.6133 188.319 22.3199 187.399 14.9865C186.959 12.7465 187.359 9.07988 184.053 9.38654C182.693 10.8799 181.373 12.4265 180.106 14.0265C178.893 13.2932 177.666 12.5999 176.439 11.8799C175.813 11.8666 174.559 11.7999 173.932 11.7598C172.466 8.86652 171.359 5.6666 168.586 3.7066C164.466 9.07993 166.599 16.7066 164.319 22.9066C162.559 22.1866 160.813 21.4799 159.053 20.7598Z" fill="#F3F8E2"/>
<path d="M305.573 49.7201C306.013 36.1867 306.387 22.6267 306 9.08007C305.747 16.4534 305.28 23.84 304.213 31.16C302.573 43.52 300.72 55.8667 298.013 68.0534C297.44 72.1867 295.12 75.7067 292.6 78.9467C291.893 74.0934 291.267 69.2534 290.493 64.4134C289.253 68.0801 288.413 71.8934 288.307 75.76C289.427 79.88 290.347 84.1734 292.747 87.7467C295.147 88.4001 297.547 88.9601 299.96 89.4668C300.28 88.2135 300.88 85.6935 301.2 84.4668C299.92 84.5868 297.347 84.88 296.067 85.0267C297.933 79.3467 300.027 73.7334 301.747 68.0134C303.147 61.9334 304.4 55.84 305.573 49.7201Z" fill="#5F8C3F"/>
<path d="M178.56 34.9334C172.92 29.1734 172.36 20.7467 168.907 13.7867C168.573 18.1067 168.547 22.44 168.987 26.76C170.773 32.9466 172 39.2667 172.427 45.7067C173.787 48.8667 175.32 51.9467 176.84 55.04C178.853 48.5334 178.88 41.6801 178.56 34.9334Z" fill="#E0EABE"/>
<path d="M157.519 30.7333C157.066 26.0266 156.039 21.4132 154.759 16.8932C153.986 26.4665 155.346 36.2533 152.666 45.6132C149.852 41.0532 147.213 36.3332 144.639 31.6265C143.506 34.7999 142.333 37.9866 141.159 41.1733C143.106 47.9599 146.066 54.4133 150.213 60.1333C149.599 55.6933 148.866 51.2932 148.039 46.9199C151.133 51.3199 154.386 55.6132 157.799 59.7866C157.106 50.0932 156.039 40.3733 157.519 30.7333Z" fill="#DAE7BA"/>
<path d="M278.333 19.0265C278.187 21.4399 278.04 23.8666 277.92 26.3199C281.253 33.9866 283.28 42.1333 284.493 50.4C285.413 48.2533 286.347 46.1199 287.267 43.9866C288.733 46.9999 290.2 50.0133 291.387 53.1733C291.867 55.0933 292.853 58.9466 293.333 60.8532C294.2 57.5866 295.12 54.2932 296.04 51.0799C297.293 56.6399 297.987 62.3332 298.013 68.0532C300.72 55.8666 302.573 43.5199 304.213 31.1599C301.253 34.5599 298.467 38.0666 295.747 41.6799C294.173 37.7999 292.587 33.9466 290.973 30.1066C288.56 31.0133 286.173 32.0399 283.707 32.7733C281.587 28.3333 280.04 23.6399 278.333 19.0265Z" fill="#E2E9C4"/>
<path d="M141.16 41.1734C139.066 34.4001 136.506 27.7867 133.56 21.36C136.386 37.44 140.306 53.8134 149.066 67.8401C151.906 72.4934 154.88 77.0667 157.813 81.6801C156.253 81.9734 153.08 82.5734 151.506 82.8934C155.893 84.1734 160.373 85.1067 164.813 86.0801C163.893 77.2801 159.386 68.08 163.586 59.4934C161.973 49.8267 159.013 40.4268 157.52 30.7335C156.04 40.3735 157.106 50.0934 157.8 59.7867C154.386 55.6134 151.133 51.3201 148.04 46.9201C148.866 51.2934 149.6 55.6935 150.213 60.1335C146.066 54.4135 143.106 47.9601 141.16 41.1734Z" fill="#ADC47D"/>
<path d="M274.546 37.3201C272.866 33.0001 271.106 28.5868 267.626 25.3734C266.959 29.1201 266.439 33.1467 263.799 36.1467C261.493 33.8667 259.159 31.6 256.839 29.36C256.653 39.4934 255.933 50.5867 261.066 59.76L260.733 58.2934C260.466 53.3734 260.533 48.4667 260.679 43.56C263.813 46.56 266.893 49.6134 269.959 52.6934C270.479 50.8934 270.999 49.0934 271.533 47.3201C273.853 52.0267 274.959 57.2001 273.773 62.4401C274.373 63.5068 275.613 65.6267 276.239 66.6934C278.693 55.9067 277.013 44.8667 277.333 33.9201C276.413 35.0401 275.466 36.1734 274.546 37.3201Z" fill="#E9F1D1"/>
<path d="M325.147 27.72C321.307 36.7733 318.253 46.1467 315.773 55.6533C316.2 59.0933 316.747 62.5066 317.16 65.96C324.413 54.6 325.88 40.88 325.147 27.72Z" fill="#C9D6A7"/>
<path d="M284.493 50.4C283.279 42.1334 281.253 33.9866 277.919 26.32C277.773 28.2266 277.479 32.0133 277.332 33.92C277.012 44.8666 278.693 55.9066 276.239 66.6933C277.266 68.5999 278.279 70.5333 279.279 72.48C279.173 63.36 278.719 54.2133 279.866 45.1599C282.799 53.0933 281.919 61.7733 284.373 69.84C285.999 64.0133 287.239 57.8267 291.386 53.1733C290.199 50.0133 288.732 47 287.266 43.9866C286.346 46.12 285.413 48.2534 284.493 50.4Z" fill="#CDDB9F"/>
<path d="M180.693 26.5334C179.92 29.2934 179.213 32.1068 178.56 34.9334C178.88 41.6801 178.853 48.5334 176.84 55.0401C175.32 51.9467 173.786 48.8667 172.426 45.7067C172.32 50.8934 172.04 56.0934 171.84 61.3067C172.88 62.4001 175.026 64.6 176.093 65.6933C177.573 62.0667 179.026 58.44 180.453 54.8134C183.653 60.64 187.426 66.1334 190.72 71.9067C192.373 68.8801 193.813 65.7334 195.16 62.5734C193.773 62.3334 192.373 62.1067 190.96 61.8933C187.506 56.56 181.08 51.9867 181.933 44.9067C181.92 38.7467 181.56 32.6001 180.693 26.5334Z" fill="#C4D495"/>
<path d="M172.426 45.7066C171.999 39.2666 170.773 32.9465 168.986 26.7598C167.293 39.2532 170.533 52.9331 164.399 64.4265C164.759 67.1731 165.199 69.9466 165.653 72.7066C166.346 70.4399 167.013 68.1998 167.64 65.9598C168.92 69.0798 170.16 72.2533 171.706 75.2666C174.493 75.3199 175.186 71.9065 176.879 70.3598C178.666 70.2398 180.453 70.1332 182.226 70.0399C182.666 71.1732 183.573 73.4399 184.013 74.5732C185.533 74.8666 187.053 75.1599 188.533 75.4799L189.453 75.6399C189.773 74.7199 190.399 72.8532 190.719 71.9066C187.426 66.1332 183.653 60.6399 180.453 54.8132C179.026 58.4399 177.573 62.0665 176.093 65.6931C175.026 64.5998 172.88 62.3999 171.84 61.3066C172.04 56.0932 172.319 50.8932 172.426 45.7066Z" fill="#92A85E"/>
<path d="M188.599 49.8666C188.079 44.9066 187.426 39.9865 186.506 35.0798C184.906 38.3065 183.293 41.5465 181.933 44.9065C181.079 51.9865 187.506 56.5598 190.959 61.8931C192.373 62.1065 193.773 62.3332 195.159 62.5732L195.453 62.6265C196.586 59.4398 197.799 56.3198 198.679 53.0799C198.493 51.2932 198.106 47.6931 197.919 45.8931C196.773 48.0265 195.613 50.1865 194.466 52.3465C194.146 50.9198 193.479 48.0665 193.159 46.6399C191.653 47.7065 190.133 48.7866 188.599 49.8666Z" fill="#CEDBAA"/>
<path d="M269.959 52.6932C266.892 49.6132 263.813 46.5599 260.679 43.5599C260.533 48.4665 260.466 53.3732 260.732 58.2932C263.439 57.7065 266.079 57.0532 268.653 56.1199C270.399 58.1866 272.133 60.2666 273.773 62.4399C274.959 57.1999 273.852 52.0266 271.532 47.3199C270.999 49.0932 270.479 50.8932 269.959 52.6932Z" fill="#C7D698"/>
<path d="M284.373 69.8401C281.919 61.7734 282.799 53.0934 279.866 45.16C278.719 54.2134 279.172 63.3601 279.279 72.4801C278.279 70.5334 277.266 68.6 276.239 66.6934C275.613 65.6267 274.373 63.5068 273.773 62.4401C272.133 60.2668 270.399 58.1867 268.652 56.1201C266.079 57.0534 263.439 57.7067 260.732 58.2934L261.066 59.76C264.066 68.48 267.546 77.2535 273.452 84.4668C272.679 80.0001 272.199 75.4801 271.799 70.9734C275.586 73.1068 279.172 75.5735 282.586 78.2668C284.492 77.4268 286.399 76.6 288.306 75.76C288.413 71.8934 289.252 68.0801 290.492 64.4134C291.266 69.2534 291.892 74.0934 292.599 78.9467C295.119 75.7067 297.439 72.1867 298.012 68.0534C297.986 62.3334 297.293 56.6401 296.039 51.0801C295.119 54.2934 294.199 57.5867 293.332 60.8534C292.852 58.9467 291.866 55.0934 291.386 53.1734C287.239 57.8268 285.999 64.0134 284.373 69.8401Z" fill="#97B461"/>
<path d="M127.213 46.9335C129.706 53.5335 132.2 60.1334 135.226 66.5068C139.386 74.1334 144.666 81.24 150.986 87.2267C157.693 93.5734 166.346 97.1734 173.68 102.693C174.333 100.507 175.12 98.4001 175.946 96.3201C179.506 88.9867 184.679 82.6134 188.533 75.4801C187.053 75.1601 185.533 74.8668 184.013 74.5734C183.573 73.4401 182.666 71.1734 182.226 70.0401C180.453 70.1334 178.666 70.24 176.88 70.36C175.186 71.9067 174.493 75.3201 171.706 75.2668C170.16 72.2535 168.92 69.08 167.64 65.96C167.013 68.2 166.346 70.4401 165.653 72.7068C165.2 69.9468 164.759 67.1734 164.399 64.4267L163.586 59.4934C159.386 68.08 163.893 77.2801 164.813 86.0801C160.373 85.1067 155.893 84.1734 151.506 82.8934C148.68 80.5067 146.04 77.9068 143.546 75.2001C136.053 67.0935 131.706 56.8401 127.213 46.9335Z" fill="#688446"/>
<path d="M305.573 49.7198C304.399 55.8398 303.146 61.9332 301.746 68.0132C304.146 69.9865 306.959 71.3199 309.746 72.6399C311.333 69.0266 312.719 65.2931 313.959 61.5598C312.199 61.3331 308.679 60.9066 306.919 60.7066C306.439 57.0399 305.946 53.3865 305.573 49.7198Z" fill="#D0E0AE"/>
<path d="M317.159 65.9599C316.746 62.5066 316.199 59.0933 315.772 55.6533C315.319 57.12 314.412 60.0666 313.959 61.5599C312.719 65.2933 311.332 69.0267 309.746 72.64C307.212 76.7867 304.185 80.6 301.199 84.4667C300.879 85.6934 300.279 88.2134 299.959 89.4667C297.546 88.96 295.146 88.4 292.746 87.7466C290.346 84.1733 289.426 79.8799 288.306 75.7599C286.399 76.5999 284.492 77.4267 282.586 78.2667C279.172 75.5734 275.585 73.1067 271.799 70.9733C272.199 75.48 272.679 80 273.452 84.4667C277.052 90.0934 284.199 94.4533 282.479 102.12C282.506 102.88 282.546 104.347 282.572 105.093C286.026 96.8266 295.772 96.3867 302.679 92.5067C313.466 87.04 319.719 76.16 325.772 66.2133L324.719 66.68C320.386 72.8933 315.612 78.9066 309.572 83.6266C311.519 77.5066 314.146 71.6399 317.159 65.9599Z" fill="#5C7B35"/>
<path d="M157.813 81.6798C154.879 77.0665 151.906 72.4931 149.066 67.8398C147.612 70.5731 145.933 73.1732 143.546 75.1998C146.039 77.9065 148.679 80.5064 151.506 82.8931C153.079 82.5731 156.253 81.9731 157.813 81.6798Z" fill="#CFDFA6"/>
<path d="M175.946 96.32C175.12 98.4 174.333 100.507 173.68 102.693C174.16 120.987 178.013 139.067 178.253 157.413C180.36 192.973 175.986 228.493 176.573 264.027C183.32 256.84 182.52 246.253 183.32 237.16C183.253 224.093 182.946 210.867 186.333 198.133C187.213 198.373 188.973 198.907 189.853 199.16C188.426 164.44 175.106 131.187 175.946 96.32Z" fill="#73906D"/>
<path d="M114.6 102.76C113.813 100.213 111.893 94.9867 108.387 97.0533C108.267 104.053 111.573 111.573 107.467 117.987C103.32 110.76 100.893 102.453 95.1332 96.24C94.4132 104.32 96.9065 112.2 96.9332 120.293C92.1732 116.813 90.5865 110.84 86.9999 106.373C81.1999 111.2 87.9999 118.987 88.9466 124.92C86.4133 124.96 83.8533 125 81.3066 125.04C84.9866 131.373 89.0133 137.507 93.3733 143.427C94.16 143.28 95.7732 142.987 96.5999 142.84C96.5065 138.6 96.1733 134.387 95.8799 130.173C99.2533 137.133 102.72 144.067 106.773 150.653C107.747 138.64 102.4 127.307 101.787 115.387C103.573 119.133 105.307 122.933 107.053 126.747C108.347 127.04 109.653 127.333 110.933 127.64C112.307 129.347 113.667 131.04 115.013 132.76C114.213 124.227 113.28 115.747 112.813 107.2C116.12 116.547 118.6 126.16 120.413 135.907C120.907 138.48 121.387 141.08 121.84 143.68C124.027 143.867 126.2 144.067 128.36 144.28C129.24 142.16 130.08 140.027 130.88 137.907L131.187 135.147C132.2 125.533 133.413 115.933 133.827 106.267C129.067 113.187 130.307 122.267 128.093 130.093C127.147 129.8 125.28 129.173 124.333 128.88C121.76 119.907 117.133 111.72 114.6 102.76Z" fill="#EFF4DB"/>
<path d="M282.48 102.12C277.146 109.453 276.467 118.907 272.507 126.933C266.187 140.32 261.067 154.24 255.24 167.853C256.92 152.52 260.28 137.24 259.893 121.773C259.226 123.747 258.493 125.693 257.973 127.747C256.44 135.8 255.186 143.88 253.213 151.867C252.106 164.667 248.48 177.026 245.84 189.56C249.547 182.146 254.28 175.333 259.266 168.76C261.173 174.813 262.853 180.973 263.48 187.293C266.2 177.266 267.76 166.947 270.44 156.92L270.746 155.56C273.493 143.293 274.92 130.747 278.84 118.787C280.12 114.68 281.413 110.546 282.613 106.426L282.573 105.093C282.547 104.346 282.506 102.88 282.48 102.12Z" fill="#A3B780"/>
<path d="M134.147 102.733C134.053 103.613 133.906 105.4 133.826 106.267C133.413 115.933 132.2 125.533 131.187 135.146C134.48 140.693 136.32 146.96 136.213 153.453C142.08 137.093 138.987 118.947 134.147 102.733Z" fill="#CDDEA6"/>
<path d="M112.813 107.2C113.28 115.747 114.213 124.227 115.013 132.76C113.666 131.04 112.306 129.347 110.933 127.64C109.653 127.333 108.346 127.04 107.053 126.747C105.306 122.933 103.573 119.133 101.786 115.387C102.4 127.307 107.746 138.64 106.773 150.653C102.72 144.067 99.253 137.133 95.8797 130.173C96.173 134.387 96.5063 138.6 96.5996 142.84C95.7729 142.987 94.1597 143.28 93.373 143.427C98.413 150.653 103.64 157.8 109.88 164.04C111.386 156.707 112.2 149.24 112.666 141.787C114.28 141.933 115.92 142.08 117.533 142.227C118.493 140.107 119.48 138 120.413 135.907C118.6 126.16 116.12 116.547 112.813 107.2Z" fill="#B5CC90"/>
<path d="M81.3063 125.04C77.8796 119.053 74.5596 113 70.6396 107.32C73.213 113.413 76.1463 119.373 79.0796 125.293C86.773 140.32 94.773 155.213 104.013 169.347C100.64 167.48 97.2396 165.613 93.813 163.853L95.213 167.307C97.3063 169.8 99.6795 172 101.933 174.347C96.3595 173.467 90.9996 171.147 85.2796 171.4C91.2796 177.6 98.8129 182.187 107.16 184.44C107.026 178.533 110.293 174.08 114.973 170.893C115.48 167.52 115.933 164.12 116.373 160.747C117.28 160.64 119.08 160.413 119.973 160.307C120.293 159.16 120.946 156.827 121.253 155.68C122.666 161.373 125.64 166.453 131.333 168.693C130.053 164.253 127.666 160.293 125.506 156.267C123.746 152.227 122.68 147.973 121.84 143.68C121.386 141.08 120.906 138.48 120.413 135.907C119.48 138 118.493 140.107 117.533 142.227C115.92 142.08 114.28 141.933 112.666 141.787C112.2 149.24 111.386 156.707 109.88 164.04C103.64 157.8 98.413 150.653 93.373 143.427C89.013 137.507 84.9863 131.373 81.3063 125.04Z" fill="#7FA24F"/>
<path d="M278.839 118.786C274.919 130.746 273.493 143.293 270.746 155.56C272.719 153.12 274.773 150.773 276.826 148.453C277.959 159.8 277.106 171.2 277.666 182.586C277.399 185.906 280.079 188.16 281.879 190.586C281.506 188.933 280.786 185.626 280.413 183.96C279.346 174.16 279.799 164.213 281.799 154.546C284.573 160.453 287.133 166.493 289.733 172.48C291.306 168.693 292.879 164.92 294.199 161.04C296.479 151.946 298.026 142.626 301.906 134.013C301.839 138.773 301.679 143.546 301.466 148.32C303.546 148.786 305.613 149.266 307.693 149.746C308.693 152.52 309.706 155.32 310.693 158.133C314.213 152.053 317.853 146.04 321.893 140.28C321.226 149.346 319.173 158.533 313.746 166.013C310.239 171.306 306.733 176.72 304.693 182.826C320.053 178.706 326.866 162.987 335.773 151.4C332.373 159.387 328.679 167.266 324.373 174.786C330.586 172.586 335.853 168.626 340.626 164.16C336.599 173.653 328.559 180.386 323.159 188.973C331.973 187.36 337.839 180 346.013 176.986C351.519 175.066 346.639 168.853 345.133 165.586C347.746 160.413 350.293 155.133 351.466 149.44C348.693 149.08 345.933 148.746 343.159 148.426C343.333 144.866 343.666 141.347 343.399 137.8C339.999 135.96 337.839 140.253 335.746 142.226C332.013 145.893 330.239 152.666 324.279 153.16C324.813 143.466 329.773 134.293 329.319 124.626C327.679 119.346 324.773 125.347 322.573 127C320.746 126.493 318.919 126.013 317.093 125.533C314.186 130.133 311.759 135.04 309.719 140.093C308.679 140.16 306.626 140.24 305.599 140.28C304.946 135.546 304.653 130.413 300.733 127.08C299.626 129.36 298.493 131.693 297.386 134.013C296.439 133.84 294.559 133.56 293.613 133.386C292.959 130.68 294.279 122.133 289.586 125.293C286.613 131.293 284.733 137.746 281.839 143.773C273.826 137.453 281.853 127.093 278.839 118.786Z" fill="#F1F5E2"/>
<path d="M245.279 124.947C244.146 124.96 241.853 124.987 240.733 124.987C240.013 131.707 239.56 138.48 238.84 145.227C236.053 143.693 233.266 142.16 230.479 140.653C231.946 152.933 235.159 164.893 238.133 176.867C239.133 167.56 242.693 158.547 242.173 149.093C241.92 142.653 241.879 136.187 242.799 129.827C244.439 140.387 244.666 151.133 246.866 161.653C248.479 158.04 250.426 154.627 253.213 151.867C255.186 143.88 256.44 135.8 257.973 127.747C255.84 129.933 254.239 132.573 252.759 135.253C251.479 135.373 250.199 135.52 248.919 135.693C248.439 136.88 247.479 139.293 246.986 140.507C246.359 135.32 245.799 130.133 245.279 124.947Z" fill="#EBF3D7"/>
<path d="M104.013 169.347C94.7728 155.213 86.7728 140.32 79.0795 125.293C76.7995 132.84 80.7595 139.8 84.1461 146.253C83.2528 146.56 81.3995 147.187 80.4795 147.507C85.6128 153.547 90.5994 159.72 94.6261 166.573L95.2128 167.307L93.8128 163.853C97.2395 165.613 100.639 167.48 104.013 169.347Z" fill="#E7F0CE"/>
<path d="M246.866 161.653C244.666 151.133 244.439 140.387 242.799 129.827C241.879 136.187 241.92 142.653 242.173 149.093C242.693 158.547 239.133 167.56 238.133 176.867C239.466 182.413 242.466 187.32 245.253 192.24L245.84 189.56C248.48 177.027 252.106 164.667 253.213 151.867C250.426 154.627 248.479 158.04 246.866 161.653Z" fill="#CEDAB5"/>
<path d="M230.48 140.653C230.066 137.133 229.586 133.68 228.866 130.227C227.826 147.653 232.2 164.84 236.306 181.6C238.32 187 239.746 192.6 240.12 198.373C237.52 194.333 235.426 189.973 234 185.387C233.106 182.587 232.08 179.84 230.946 177.107C227.986 191.68 240.92 204.52 238 219.253C238.84 223.213 239.72 227.12 240.533 231.107C241.293 218.973 242.28 206.893 246.2 195.293C245.96 194.547 245.48 193.013 245.253 192.24C242.466 187.32 239.466 182.413 238.133 176.867C235.16 164.893 231.946 152.933 230.48 140.653Z" fill="#90A86B"/>
<path d="M67.373 132.88C63.933 133.093 60.6797 134.267 57.373 135.147C60.813 141.907 65.5197 147.933 68.9197 154.733C72.1063 161.853 78.6663 166.467 84.4263 171.373L85.2797 171.4C90.9997 171.147 96.3596 173.467 101.933 174.347C99.6796 172 97.3064 169.8 95.213 167.307L94.6263 166.573C90.5996 159.72 85.613 153.547 80.4797 147.507C76.333 142.453 72.5597 136.947 67.373 132.88Z" fill="#E5EECB"/>
<path d="M301.906 134.013C298.026 142.627 296.479 151.947 294.199 161.04C296.919 160.773 299.639 160.493 302.373 160.24C301.986 165.587 301.679 170.96 301.453 176.333C305.266 170.867 309.159 165.44 313.373 160.267C313.466 161.707 313.666 164.56 313.746 166.013C319.173 158.533 321.226 149.347 321.893 140.28C317.853 146.04 314.213 152.053 310.693 158.133C309.706 155.32 308.693 152.52 307.693 149.747C305.613 149.267 303.546 148.787 301.466 148.32C301.679 143.547 301.839 138.773 301.906 134.013Z" fill="#D3DEB8"/>
<path d="M136.212 153.453C136.319 146.96 134.479 140.693 131.186 135.147L130.879 137.907C130.879 144.467 130.053 151.16 125.506 156.267C127.666 160.293 130.052 164.253 131.332 168.693L131.066 170.56C133.279 165 135.026 159.28 136.212 153.453Z" fill="#98B169"/>
<path d="M130.88 137.907C130.08 140.027 129.24 142.16 128.36 144.28C126.2 144.067 124.027 143.867 121.84 143.68C122.68 147.973 123.747 152.227 125.507 156.267C130.053 151.16 130.88 144.467 130.88 137.907Z" fill="#C8DAA0"/>
<path d="M221.906 154.467C219.76 150.907 217.306 147.533 214.493 144.453C213.533 154.68 217.946 164.227 219.266 174.2C220.933 181.573 220.213 190.107 225.666 196.053C226.253 183.573 222.626 171.627 219.773 159.64C220.133 158.76 220.839 157.027 221.199 156.16L221.906 154.467Z" fill="#D7E3B6"/>
<path d="M324.373 174.786C328.68 167.266 332.373 159.387 335.773 151.4C326.866 162.987 320.053 178.706 304.693 182.826C306.733 176.72 310.239 171.306 313.746 166.013C313.666 164.56 313.466 161.707 313.373 160.267C309.16 165.44 305.266 170.867 301.453 176.333C301.679 170.96 301.986 165.586 302.373 160.24C299.64 160.493 296.919 160.773 294.199 161.04C292.879 164.92 291.306 168.693 289.733 172.48C287.133 166.493 284.573 160.453 281.799 154.546C279.799 164.213 279.346 174.16 280.413 183.96C281.559 177.68 288.306 176.373 293.719 176.986C298.173 180.88 299.853 188.506 307.213 187.773C308.586 192.413 312.786 194.626 316.973 196.373C315.28 199.106 313.573 201.88 311.879 204.667C319.533 202.387 325.653 197.146 331.64 192.16C326.92 191.186 322.106 190.76 317.306 190.52C318.84 188.4 320.346 186.293 321.853 184.173C320.226 183.84 318.586 183.506 316.946 183.186C319.386 180.346 321.853 177.533 324.373 174.786Z" fill="#9DB76E"/>
<path d="M131.333 168.693C125.639 166.453 122.666 161.373 121.253 155.68C120.946 156.826 120.293 159.16 119.973 160.306C119.079 160.413 117.279 160.64 116.373 160.746C115.933 164.12 115.479 167.52 114.973 170.893C110.293 174.08 107.026 178.533 107.159 184.44C108.453 184.986 111.079 186.107 112.399 186.667C117.693 185.493 123.039 184.466 128.426 183.773C129.213 179.84 130.013 175.92 130.786 171.986L131.066 170.56L131.333 168.693Z" fill="#4D6C2E"/>
<path d="M270.439 156.92C267.759 166.946 266.199 177.266 263.479 187.293C261.786 193.826 259.439 200.186 257.506 206.653C256.172 212.36 254.666 218.08 252.266 223.453C256.986 222.08 262.706 220.92 264.879 215.893C267.946 210.653 264.146 205 262.772 199.893C265.666 196.973 269.386 194.613 271.172 190.813C272.679 179.546 271.172 168.16 270.439 156.92Z" fill="#E6EEDB"/>
<path d="M231.173 175.84C228.56 168.947 224.973 162.466 221.2 156.16C220.84 157.026 220.133 158.76 219.773 159.64C222.627 171.627 226.253 183.573 225.667 196.053C227.68 204.64 232.787 212.227 238 219.253C240.92 204.52 227.987 191.68 230.947 177.107L231.173 175.84Z" fill="#B1C883"/>
<path d="M340.626 164.16C335.853 168.627 330.586 172.587 324.373 174.787C321.853 177.533 319.386 180.347 316.946 183.187C318.586 183.507 320.226 183.84 321.853 184.173C320.346 186.293 318.84 188.4 317.306 190.52C322.106 190.76 326.92 191.187 331.64 192.16C334.013 190.333 336.44 188.6 338.786 186.747C341.693 183.907 343.786 180.36 346.013 176.987C337.84 180 331.973 187.36 323.16 188.973C328.56 180.387 336.6 173.653 340.626 164.16Z" fill="#C6D1A9"/>
<path d="M263.48 187.293C262.853 180.973 261.173 174.813 259.266 168.76C254.28 175.333 249.546 182.147 245.84 189.56L245.253 192.24C245.48 193.013 245.96 194.547 246.2 195.293C246.826 195.027 248.08 194.44 248.733 194.173C252.186 200.187 253.573 191.613 255.626 189.04C256.133 194.92 256.88 200.773 257.506 206.653C259.44 200.187 261.786 193.827 263.48 187.293Z" fill="#779757"/>
<path d="M130.786 171.987C130.013 175.92 129.213 179.84 128.426 183.773C123.039 184.467 117.693 185.493 112.399 186.667C119.199 223.04 133.893 258.387 156.053 288.12C155.133 274.707 145.346 264.733 140.613 252.747C138.799 249.52 143.239 248.04 144.786 245.96C134.853 227.853 126.079 209.133 118.466 189.933C118.573 189.267 118.759 187.907 118.853 187.213C121.879 185.32 125.546 185.893 128.919 185.627C129.866 186.373 131.759 187.92 132.693 188.707C130.626 183.36 129.786 177.653 130.786 171.987Z" fill="#809873"/>
<path d="M293.72 176.987C288.306 176.373 281.56 177.68 280.413 183.96C289.92 184.76 299.333 190.027 302.266 199.573C301.466 203.32 296.853 203.533 293.96 205C299.893 206.16 306.013 206.173 311.88 204.667C313.573 201.88 315.28 199.107 316.973 196.373C312.786 194.627 308.586 192.413 307.213 187.773C299.853 188.507 298.173 180.88 293.72 176.987Z" fill="#6E9147"/>
<path d="M240.12 198.373C239.747 192.6 238.32 187 236.307 181.6C235.72 182.56 234.587 184.44 234 185.387C235.427 189.973 237.52 194.333 240.12 198.373Z" fill="#CBDDA5"/>
<path d="M302.266 199.573C299.333 190.027 289.92 184.76 280.413 183.96C280.786 185.627 281.506 188.933 281.88 190.587C284.266 196.6 283.173 203.067 280.707 208.88C272.893 229.76 267.067 251.427 264.84 273.667C265.347 275 266.346 277.667 266.853 279C265.12 259.267 271.44 239.72 277.346 221.093C279.213 215.667 280.866 210.093 283.946 205.213C287.026 203.413 290.653 204.933 293.96 205C296.853 203.533 301.466 203.32 302.266 199.573Z" fill="#4D6633"/>
<path d="M338.789 186.741C336.449 188.586 334.015 190.325 331.649 192.156C325.658 197.144 319.534 202.372 311.886 204.659C306.016 206.17 299.905 206.143 293.968 204.993C290.665 204.939 287.029 203.402 283.953 205.207C280.878 210.087 279.22 215.663 277.348 221.092C282.028 229.315 281.439 238.956 283.218 247.968C283.325 243.783 283.646 239.651 283.98 235.506C285.37 236.629 286.734 237.793 288.125 238.943C289.89 235.707 291.628 232.524 293.393 229.315C294.369 229.262 296.335 229.128 297.324 229.048C298.18 234.396 299.156 239.718 300.226 245.013C302.165 241.898 304.104 238.796 306.016 235.667C307.005 238.648 307.995 241.644 308.984 244.639C313.236 239.05 317.582 233.527 322.115 228.165C322.516 235.332 323.251 242.486 324.241 249.626C326.634 247.741 329.028 245.856 331.421 243.984C331.769 245.334 332.491 247.995 332.852 249.332C334.403 249.707 337.519 250.469 339.083 250.843C341.37 247.674 343.549 244.452 345.729 241.229C338.976 252.876 332.946 264.963 325.043 275.914L324.415 278C326.26 278.04 329.91 278.094 331.756 278.121C335.901 277.412 337.626 272.692 340.18 269.884C346.063 261.112 359.046 255.617 357.348 243.262C353.832 245.896 350.382 248.637 346.972 251.431C347.841 244.706 349.941 238.073 349.807 231.294C348.523 229.128 345.662 228.647 343.669 227.31C342.8 223.873 341.958 220.463 341.035 217.04C332.237 220.985 335.941 232.805 328.052 237.472C324.856 230.599 329.041 223.271 327.985 216.104C323.813 218.19 319.949 220.811 316.365 223.806C315.59 222.91 314.092 221.145 313.343 220.276C310.268 222.389 307.219 224.461 304.117 226.534C302.914 224.007 301.724 221.48 300.507 218.993C295.68 222.055 291.789 226.24 287.497 229.97C282.656 229.235 284.889 222.723 285.13 219.407C286.467 215.436 285.477 209.205 290.331 207.68C295.787 209.058 300.614 214.446 306.631 211.665C319.32 207.159 333.507 199.965 338.789 186.741Z" fill="#F3F7E7"/>
<path d="M255.626 189.04C253.573 191.613 252.186 200.187 248.733 194.173C248.08 194.44 246.826 195.027 246.2 195.293C242.28 206.893 241.293 218.973 240.533 231.107C235.933 254.76 225.373 276.933 221.973 300.84C221.173 309.56 221.666 318.333 222.4 327.067C223.173 335.533 220.786 343.853 220.866 352.293C221.026 358.787 224.68 364.4 227.533 370.027C229.973 358.387 230.96 346.507 233.226 334.867C233.893 333.467 234.586 332.08 235.28 330.733C231.653 323.133 233.6 314.64 234.586 306.707C235.2 301.44 235.693 296.2 236.386 290.987C238.96 272.573 243.64 254.573 247.573 236.427C248.56 231.907 250.32 227.627 252.266 223.453C254.666 218.08 256.173 212.36 257.506 206.653C256.88 200.773 256.133 194.92 255.626 189.04Z" fill="#4D673F"/>
<path d="M189.853 199.16C188.973 198.907 187.213 198.373 186.333 198.133C182.946 210.867 183.253 224.093 183.319 237.16C182.519 246.253 183.319 256.84 176.573 264.027C174.706 272.573 175.799 281.787 175.853 290.613C178.919 286.88 181.919 282.813 182.399 277.88C184.213 264.28 184.306 250.507 185.933 236.907C186.026 232.973 189.546 230.56 191.746 227.76C191.506 218.173 190.213 208.707 189.853 199.16Z" fill="#567252"/>
<path d="M322.106 228.173C317.573 233.533 313.226 239.053 308.973 244.64C307.986 241.64 307 238.653 306.013 235.68C304.093 238.8 302.16 241.893 300.213 245.027C299.146 239.72 298.173 234.4 297.32 229.053C296.333 229.133 294.36 229.267 293.386 229.32C291.626 232.533 289.88 235.72 288.12 238.947C286.733 237.787 285.36 236.64 283.973 235.507C283.64 239.653 283.32 243.787 283.213 247.973C283.826 250.64 284.68 253.293 285.52 255.933C289.76 249.707 292.773 242.773 293.44 235.213C295.293 243.347 295.386 256.16 305.866 257.827C306.479 258.413 307.666 259.56 308.28 260.133C308.693 258.507 309.533 255.293 309.96 253.667C312.173 247.8 315.466 242.427 318.626 237.053C318.8 243.2 318.986 249.333 319.213 255.493C321.16 255.16 323.106 254.84 325.04 254.533C325.546 258.24 326.04 261.947 326.426 265.72C330.933 261.027 335.186 256.067 339.08 250.84C337.506 250.467 334.4 249.707 332.84 249.333C332.48 248 331.76 245.333 331.413 243.987C329.026 245.853 326.626 247.747 324.24 249.627C323.24 242.48 322.506 235.333 322.106 228.173Z" fill="#D3E2BA"/>
<path d="M191.746 227.76C189.546 230.56 186.026 232.973 185.933 236.907C184.306 250.507 184.213 264.28 182.4 277.88C181.92 282.813 178.92 286.88 175.853 290.613C176.053 294.613 176.28 298.64 176.253 302.653C174.96 299.24 173.787 295.787 172.573 292.373C170.387 297.48 168.813 303.04 170.48 308.587C173.28 315.213 176.586 321.627 180.32 327.8C184.506 334.507 186.813 342.133 188.813 349.733C191.386 358.453 192.747 367.467 194.173 376.427C196.347 387.56 191.066 398.867 194.946 409.853C199.346 396.107 197 381.267 201.907 367.68C198.867 348.56 188.013 331.533 184.893 312.493C189.56 284.493 193.453 256.213 191.746 227.76Z" fill="#496448"/>
<path d="M293.44 235.213C292.773 242.773 289.76 249.707 285.52 255.933C285.76 256.6 286.186 257.986 286.399 258.653C288.693 257.133 290.946 255.573 293.24 254.067C297.133 257.92 300.773 262.053 304.173 266.386C305.786 264.626 307.413 262.893 309.026 261.16C309.2 263.106 309.56 267.027 309.72 268.973C312.84 267.667 315.96 266.373 319.093 265.067C318.92 267.853 318.76 270.64 318.586 273.453C321.013 271.106 323.453 268.773 325.773 266.373C324.853 266.533 322.986 266.853 322.066 267.026C322.653 264.28 323.253 261.533 323.84 258.8C320.373 259.547 316.893 260.253 313.413 261C312.253 258.56 311.106 256.107 309.96 253.667C309.533 255.293 308.693 258.507 308.28 260.133C307.666 259.56 306.479 258.413 305.866 257.826C295.386 256.16 295.293 243.346 293.44 235.213Z" fill="#94AB72"/>
<path d="M318.626 237.053C315.466 242.427 312.172 247.8 309.959 253.667C311.106 256.107 312.252 258.56 313.412 261C316.892 260.253 320.372 259.547 323.839 258.8C323.252 261.533 322.652 264.28 322.066 267.027C322.986 266.853 324.852 266.533 325.772 266.373L326.426 265.72C326.039 261.947 325.546 258.24 325.039 254.533C323.106 254.84 321.159 255.16 319.212 255.493C318.986 249.333 318.799 243.2 318.626 237.053Z" fill="#B3C297"/>
<path d="M70.9727 256.88C69.186 250.32 67.6126 243.68 64.8259 237.453C65.6926 246.733 69.426 255.387 71.6393 264.373C74.2793 273.907 75.9193 283.733 75.9193 293.667C68.4126 281.533 63.2659 268.187 56.1992 255.827C59.5326 264.92 62.7726 274.053 66.546 282.987C69.3726 288.787 71.5992 295.013 71.1592 301.587C72.2659 302.493 73.3592 303.387 74.4259 304.333C74.3592 302.653 74.2126 299.307 74.1592 297.627C75.3326 298.253 77.6926 299.56 78.8659 300.213C78.7059 296.44 78.5193 292.707 78.2793 288.973C82.0393 297.293 91.506 299.293 97.4393 305.507C98.546 303.933 99.6526 302.387 100.719 300.84C100.133 287.893 100.079 274.933 98.3727 262.08C98.2527 267.067 98.2525 272.027 98.0659 277.013C98.9459 285.08 93.186 290.84 87.7727 295.853C87.0393 288.64 86.0926 281.48 85.0126 274.36C84.6526 278.92 83.9192 283.507 82.6659 287.973C76.9059 278.413 74.466 267.36 70.9727 256.88Z" fill="#8CAF6E"/>
<path d="M64.9591 263.8C60.8658 254.867 55.0925 246.867 49.2792 239L47.6258 239.906C48.6924 252.56 57.6924 263.546 57.3324 276.613C45.1591 273.16 44.1324 257.626 36.1324 249.546C34.6658 253.586 32.8791 257.533 31.7324 261.68C33.1324 267.52 36.7191 272.547 40.2924 277.267C42.8524 280.56 45.4125 283.826 47.8792 287.173C49.5192 286.8 51.1325 286.427 52.7458 286.067C52.9458 284.827 53.3725 282.333 53.5858 281.08C57.5591 284.973 61.7324 288.666 66.1324 292.093C66.3191 289.04 66.4658 286.026 66.5458 282.986C62.7725 274.053 59.5324 264.92 56.1991 255.826C63.2658 268.186 68.4125 281.533 75.9191 293.667C75.9191 283.733 74.2792 273.906 71.6392 264.373C69.9592 264.24 66.6391 263.933 64.9591 263.8Z" fill="#E9F2D5"/>
<path d="M345.719 241.227C343.546 244.453 341.359 247.68 339.079 250.84C335.186 256.067 330.933 261.027 326.426 265.72L325.773 266.373C323.453 268.773 321.013 271.107 318.586 273.453C318.759 270.64 318.919 267.853 319.093 265.067C315.959 266.373 312.839 267.667 309.719 268.973C309.559 267.027 309.199 263.107 309.026 261.16C307.413 262.893 305.786 264.627 304.173 266.387C300.773 262.053 297.133 257.92 293.24 254.067C290.946 255.573 288.693 257.133 286.399 258.653C287.519 261.973 288.626 265.307 289.759 268.613C290.613 267.627 292.306 265.64 293.173 264.653C297.173 266.16 301.173 267.693 305.119 269.347C308.279 277.88 317.746 276.693 325.04 275.92C332.933 264.96 338.973 252.88 345.719 241.227Z" fill="#6D8E52"/>
<path d="M93.0126 260.653C86.8793 256.12 86.8526 247.893 82.8659 241.893C80.4259 246.653 78.5992 251.72 77.1992 256.907C75.1459 256.88 73.066 256.88 70.9727 256.88C74.466 267.36 76.9059 278.413 82.6659 287.973C83.9192 283.507 84.6526 278.92 85.0126 274.36C84.506 269.96 84.586 265.507 85.5727 261.2C87.5593 269.24 88.5059 277.493 89.4926 285.733C90.4526 279.907 91.3593 274.08 92.306 268.28C92.906 271.613 93.5193 274.96 94.106 278.333C95.0927 278 97.0526 277.346 98.0659 277.013C98.2526 272.026 98.2527 267.066 98.3727 262.08C100.079 274.933 100.133 287.893 100.719 300.84C107.573 292.227 111.133 281.493 110.946 270.493C108.039 271.733 105.106 272.986 102.186 274.226C101.373 264.866 102.039 255.12 98.6659 246.173C98.0659 246.027 96.866 245.733 96.2793 245.586C95.386 250.64 94.706 255.773 93.0126 260.653Z" fill="#EAF5D8"/>
<path d="M144.786 245.96C143.239 248.04 138.799 249.52 140.613 252.746C145.346 264.733 155.132 274.706 156.052 288.12C157.079 292.346 158.986 296.453 161.839 299.773C164.759 302.653 167.786 305.466 170.479 308.586C168.813 303.04 170.386 297.48 172.573 292.373C164.413 276.253 153.519 261.76 144.786 245.96Z" fill="#66845E"/>
<path d="M85.5732 261.2C84.5865 265.507 84.5065 269.96 85.0131 274.36C86.0931 281.48 87.0398 288.64 87.7732 295.853C93.1865 290.84 98.9464 285.08 98.0664 277.013C97.0531 277.347 95.0932 278 94.1065 278.333C93.5198 274.96 92.9065 271.613 92.3065 268.28C91.3598 274.08 90.4531 279.907 89.4931 285.733C88.5064 277.493 87.5598 269.24 85.5732 261.2Z" fill="#BFCFA4"/>
<path d="M305.119 269.347C301.172 267.693 297.173 266.16 293.173 264.653C292.306 265.64 290.612 267.627 289.759 268.613C290.012 269.36 290.532 270.853 290.786 271.613C292.119 276.027 294.266 280.507 293.759 285.267C291.266 299.227 284.959 312.213 276.812 323.76C276.959 324.573 277.226 326.213 277.346 327.027C280.746 317.813 287.519 310.453 292.306 302.027C296.666 294.493 303.559 287.947 312.546 286.867C319.573 285.493 325.919 282.187 331.746 278.12C329.906 278.107 326.253 278.04 324.413 278L325.039 275.92C317.746 276.693 308.279 277.88 305.119 269.347Z" fill="#51723A"/>
<path d="M106.973 297.213C112.053 287.8 111.266 276.827 111.199 266.52C111.132 267.507 111.013 269.507 110.946 270.493C111.133 281.493 107.573 292.227 100.719 300.84C99.6525 302.387 98.5459 303.933 97.4393 305.507C91.5059 299.293 82.0392 297.293 78.2792 288.973C78.5192 292.707 78.7058 296.44 78.8658 300.213C77.6925 299.56 75.3325 298.253 74.1592 297.627C74.2125 299.307 74.3592 302.653 74.4258 304.333C73.3592 303.387 72.2658 302.493 71.1592 301.587C68.6392 299.493 66.0658 297.507 63.4658 295.52C61.8792 301.573 64.9726 307 67.7059 312.187C63.5059 311.653 59.0526 311.44 55.5726 308.72C49.7726 303.44 44.5725 297.547 38.8525 292.187C39.2925 292.813 40.1726 294.067 40.6126 294.693C49.7059 305.693 59.7458 316.893 73.8258 321.24C73.9058 319.627 74.0525 316.4 74.1325 314.787C77.5858 311.04 80.8792 307.053 85.0525 304.107C90.1592 305.053 93.2392 309.653 96.7592 312.987C100.386 307.88 104.186 302.827 106.973 297.213Z" fill="#779854"/>
<path d="M293.759 285.267C294.266 280.507 292.119 276.026 290.786 271.613C288.733 274.986 287.026 278.587 285.879 282.373C284.959 282.733 283.093 283.44 282.173 283.786C280.906 288.013 279.746 292.266 278.466 296.52C279.786 302.786 277.586 308.88 276.026 314.88C275.399 317.786 274.039 321.306 276.813 323.76C284.959 312.213 291.266 299.227 293.759 285.267Z" fill="#E8F2E2"/>
<path d="M264.84 273.667C264.093 276.933 263.293 280.226 263.066 283.586C268.346 295.666 264.493 309.013 265.786 321.707C269.333 319.187 272.24 315.88 273.333 311.586C268.546 301.28 270.733 289.52 266.853 279C266.346 277.667 265.347 275 264.84 273.667Z" fill="#EBF7E0"/>
<path d="M47.8793 287.173C45.4126 283.827 42.8526 280.56 40.2926 277.267C41.0659 281.293 41.7859 285.36 42.4526 289.4C38.1859 285.52 33.9726 281.56 29.6526 277.747C26.9326 283.867 32.7992 289.52 36.2259 294.053C37.3459 294.213 39.5193 294.547 40.6126 294.693C40.1726 294.067 39.2926 292.813 38.8526 292.187C44.5726 297.547 49.7727 303.44 55.5727 308.72C59.786 300.333 52.0126 293.627 47.8793 287.173Z" fill="#F6F9EB"/>
<path d="M66.1331 292.093C61.7331 288.666 57.5599 284.973 53.5865 281.08C53.3732 282.333 52.9465 284.827 52.7465 286.067C51.1332 286.427 49.5199 286.8 47.8799 287.173C52.0132 293.627 59.7866 300.333 55.5732 308.72C59.0532 311.44 63.5066 311.653 67.7066 312.187C64.9732 307 61.8798 301.573 63.4665 295.52C66.0665 297.507 68.6398 299.493 71.1598 301.587C71.5998 295.013 69.3732 288.787 66.5465 282.987C66.4665 286.027 66.3198 289.04 66.1331 292.093Z" fill="#C8DDA9"/>
<path d="M265.786 321.707C264.493 309.013 268.346 295.667 263.066 283.587C262.96 284.827 262.733 287.307 262.626 288.533C263.36 300.213 258.773 311.067 254.533 321.68C253.44 318.587 252.36 315.48 251.24 312.4C250.28 319.613 249.253 326.8 247.826 333.947C242.146 325.413 242.093 314.013 234.586 306.707C233.6 314.64 231.653 323.133 235.28 330.733C239.973 336.6 244.96 342.213 249.68 348.08C251.96 343.6 254.373 339.173 256.546 334.68L256.733 332.227C256.506 324.32 259.266 316.867 262.52 309.827C263.653 318.96 264.133 328.16 264.866 337.333C269.866 333.773 273.64 328.933 276.813 323.76C274.04 321.307 275.4 317.787 276.026 314.88C277.586 308.88 279.786 302.787 278.466 296.52C276.76 301.547 275.093 306.573 273.333 311.587C272.24 315.88 269.333 319.187 265.786 321.707Z" fill="#BFD3A6"/>
<path d="M315.733 287.067L312.546 286.867C303.56 287.947 296.666 294.493 292.306 302.027C287.52 310.453 280.746 317.813 277.346 327.027L277.52 328.933C282.04 327.16 286.733 325.853 291.413 324.56C289.506 327.907 287.613 331.32 285.32 334.467C283.28 336.627 281.16 338.76 278.986 340.84C278.213 341.547 276.64 343.013 275.866 343.747C275.866 344.773 275.866 346.853 275.88 347.88C284.2 342.933 292.253 337.48 301.026 333.373C294.093 340.307 285.733 345.68 279.2 353.027C284.48 352.373 289.733 351.493 294.786 349.84C294.853 348.4 295 345.467 295.08 344C300.173 337.32 308.146 333.6 314 327.653C315.333 324.28 314.733 320.533 314.88 317.013C308.8 319.773 303.293 324.027 296.546 325.147C298.386 320.907 300.426 316.787 302.52 312.693C299.84 313.093 297.133 313.493 294.426 313.933C298.493 308.147 301.066 301.573 304.386 295.413C307.773 292.147 311.986 289.893 315.733 287.067Z" fill="#ECF5E1"/>
<path d="M262.626 288.533C259.559 294.84 256.919 301.36 255.239 308.213C254.159 303.893 252.986 299.6 251.746 295.32C247.813 301.213 244.893 307.693 242.719 314.413C240.293 306.68 237.799 298.973 236.386 290.987C235.693 296.2 235.199 301.44 234.586 306.707C242.093 314.013 242.146 325.413 247.826 333.947C249.253 326.8 250.279 319.613 251.239 312.4C252.359 315.48 253.439 318.587 254.533 321.68C258.773 311.067 263.359 300.213 262.626 288.533Z" fill="#E6EDD9"/>
<path d="M111.373 296.627C110.28 296.773 108.08 297.067 106.973 297.213C104.186 302.827 100.386 307.88 96.7595 312.987C88.9462 323.84 100.72 334.92 104.573 344.987C99.3462 340.2 95.4795 334.187 90.5995 329.08C90.1595 329.6 89.3196 330.653 88.9062 331.16C92.3462 340.747 100.52 348.333 101.453 358.853C96.1995 357.347 91.3329 354.867 86.5195 352.36C88.0262 357.76 90.5996 364.933 96.9729 365.827C97.6662 365.973 99.0528 366.267 99.7595 366.413C108.226 371.787 116.013 378.28 123.053 385.373C125.306 387.813 127.413 390.32 129.599 392.813C122.226 375.533 111.373 360.16 102.773 343.52C107.933 347.347 111.999 352.333 116.066 357.24C114.493 349.093 112.88 340.707 108.52 333.507C104.08 325.88 97.3329 314.827 105.04 307.147C106.28 313.413 107.466 319.667 109.146 325.853C109.92 321.413 110.586 316.973 111.173 312.547C112.08 317.16 113 321.787 113.986 326.4C117.333 331.76 120.96 336.933 124.573 342.133C124.96 340.813 125.786 338.173 126.199 336.88C125.986 331.507 125.746 326.187 125.64 320.84C127.746 337.04 130.559 353.107 134.199 369.04C137.893 355.4 139.293 341.333 140.64 327.32C140.093 342.64 139.68 358.013 142.04 373.227L142.226 374.667C143.026 376.267 143.84 377.853 144.64 379.453C144.893 376.187 145.12 372.933 145.346 369.693C146.226 370.4 148.013 371.84 148.92 372.56C149.52 367.693 147.026 360.893 152.44 358.053C152.853 361.787 153.253 365.56 153.626 369.333C158.546 361.053 161.973 352.04 166.226 343.453L164.626 343.013C154.093 339.627 164.32 323.573 155.16 319.04C154.28 323.827 153.8 328.707 153.146 333.547C152.44 328.56 151.746 323.573 150.866 318.64C146.333 324.32 149.746 332.267 146.226 338.44C141.826 331.653 143.026 323.253 142.399 315.587C141.293 315.427 139.093 315.107 137.973 314.96C137.64 322.187 137.706 329.6 134.999 336.453C127.746 329.92 129.24 318.893 123.853 311.147C120.293 312.587 121.32 317.813 119.88 320.867C118.066 319.467 114.893 319.173 114.426 316.547C113.28 309.933 112.893 303.187 111.373 296.627Z" fill="#E2F0D1"/>
<path d="M221.973 300.84L219.8 300.52C220.293 324.907 210.72 348.133 210.013 372.413C214.28 377.627 214.493 384.333 214.413 390.76C213.546 390.907 211.84 391.187 210.973 391.307C210.52 394.493 210.053 397.68 209.653 400.907C209.28 405.907 209.733 410.92 210.173 415.933C211.453 413.333 212.813 410.84 214.2 408.347C214.56 409.64 215.266 412.24 215.626 413.533C220.386 399.267 224.6 384.773 227.533 370.027C224.68 364.4 221.026 358.787 220.866 352.293C220.786 343.853 223.173 335.533 222.4 327.067C221.666 318.333 221.173 309.56 221.973 300.84Z" fill="#5F7D51"/>
<path d="M170.48 308.587C167.786 305.467 164.76 302.653 161.84 299.773C164.027 307.4 166.96 314.813 168.88 322.547C172.973 333.96 177.053 345.493 177.426 357.787C183.253 348.36 173.973 336.813 180.32 327.8C176.586 321.627 173.28 315.213 170.48 308.587Z" fill="#7A9575"/>
<path d="M96.7595 312.987C93.2395 309.653 90.1595 305.053 85.0529 304.107C80.8795 307.053 77.5861 311.04 74.1328 314.787C74.0528 316.4 73.9062 319.627 73.8262 321.24C79.8128 322.84 85.9728 324.76 90.5995 329.08C95.4795 334.187 99.3462 340.2 104.573 344.987C100.72 334.92 88.9462 323.84 96.7595 312.987Z" fill="#4C6F35"/>
<path d="M105.039 307.147C97.3326 314.827 104.079 325.88 108.519 333.507C111.679 332.307 113.133 329.44 113.986 326.4C112.999 321.787 112.079 317.16 111.173 312.547C110.586 316.973 109.919 321.413 109.146 325.853C107.466 319.667 106.279 313.413 105.039 307.147Z" fill="#C1D1AE"/>
<path d="M262.519 309.827C259.266 316.867 256.506 324.32 256.733 332.227C257.946 337.907 259.106 343.6 260.733 349.2C266.986 346.64 271.426 339.707 278.986 340.84C281.159 338.76 283.279 336.627 285.319 334.467C280.826 334.573 276.346 334.84 271.866 335.2C273.733 333.08 275.573 330.96 277.519 328.933L277.346 327.027C277.226 326.213 276.96 324.573 276.813 323.76C273.64 328.933 269.866 333.773 264.866 337.333C264.133 328.16 263.653 318.96 262.519 309.827Z" fill="#8BB16E"/>
<path d="M125.64 320.84C125.747 326.187 125.987 331.507 126.2 336.88C127.56 349.787 129.573 362.64 130.227 375.613C121.147 360.973 113.067 344 113.987 326.4C113.133 329.44 111.68 332.307 108.52 333.507C112.88 340.707 114.493 349.093 116.067 357.24C112 352.333 107.933 347.347 102.773 343.52C111.373 360.16 122.227 375.533 129.6 392.813C131.027 394.573 132.947 395.893 135.173 396.48C138.747 389.533 136.213 381.52 135.733 374.173C137.307 373.92 140.467 373.453 142.04 373.227C139.68 358.013 140.093 342.64 140.64 327.32C139.293 341.333 137.893 355.4 134.2 369.04C130.56 353.107 127.747 337.04 125.64 320.84Z" fill="#6D9059"/>
<path d="M291.413 324.56C286.733 325.853 282.04 327.16 277.52 328.933C275.573 330.96 273.733 333.08 271.866 335.2C276.346 334.84 280.826 334.573 285.32 334.467C287.613 331.32 289.506 327.907 291.413 324.56Z" fill="#BDD1AC"/>
<path d="M124.572 342.133C120.959 336.933 117.332 331.76 113.986 326.4C113.066 344 121.146 360.973 130.226 375.613C129.572 362.64 127.559 349.787 126.199 336.88C125.786 338.173 124.959 340.813 124.572 342.133Z" fill="#D3E9BC"/>
<path d="M180.319 327.8C173.972 336.813 183.252 348.36 177.426 357.787C177.639 359.56 177.826 361.347 178.012 363.147C178.666 361.907 179.986 359.4 180.639 358.147C182.106 367.467 183.319 376.853 185.786 385.987C186.706 384.88 188.559 382.613 189.492 381.507C186.612 371.053 187.586 360.347 188.812 349.733C186.812 342.133 184.506 334.507 180.319 327.8Z" fill="#98B88C"/>
<path d="M249.68 348.08C244.96 342.213 239.973 336.6 235.28 330.733C234.587 332.08 233.893 333.467 233.227 334.867C236.48 341.773 239.72 348.707 242.68 355.773C245.653 354.24 248.653 352.72 251.64 351.253C254.787 346.267 256.76 340.627 256.547 334.68C254.373 339.173 251.96 343.6 249.68 348.08Z" fill="#709958"/>
<path d="M301.026 333.373C292.253 337.48 284.2 342.933 275.88 347.88C275.866 346.853 275.866 344.773 275.866 343.747C269.72 348.773 264.213 354.48 258.866 360.32C264.8 358.2 271.546 355.653 276.96 360.493L278 361.053C288.24 356.187 298.533 351.4 308.933 346.907C304.093 347.12 299.346 348.253 294.786 349.84C289.733 351.493 284.48 352.373 279.2 353.027C285.733 345.68 294.093 340.307 301.026 333.373Z" fill="#93B279"/>
<path d="M260.733 349.2C259.106 343.6 257.946 337.907 256.733 332.227L256.546 334.68C256.76 340.627 254.786 346.267 251.64 351.253C248.653 352.72 245.653 354.24 242.68 355.773C243.226 357.067 244.293 359.693 244.84 360.987C245.546 362.733 246.253 364.493 246.946 366.253C250.36 369.013 253.72 371.987 255.84 375.933C260.866 368.413 269.186 364.453 276.96 360.493C271.546 355.653 264.8 358.2 258.866 360.32C264.213 354.48 269.72 348.773 275.866 343.747C276.64 343.013 278.213 341.547 278.986 340.84C271.426 339.707 266.986 346.64 260.733 349.2Z" fill="#4D6A3F"/>
<path d="M167.773 343.787L166.227 343.453C161.973 352.04 158.547 361.053 153.627 369.333C153.253 365.56 152.853 361.787 152.44 358.053C147.027 360.893 149.52 367.693 148.92 372.56C148.013 371.84 146.227 370.4 145.347 369.693C145.12 372.933 144.893 376.187 144.64 379.453C143.84 377.853 143.027 376.267 142.227 374.667C142.627 377.507 142.907 380.387 143.533 383.2C146.733 382.28 149.84 381.107 152.96 379.96C153.293 382.693 153.613 385.44 153.88 388.213C155.053 385.227 156.347 382.32 157.48 379.347C160.067 367.253 163.373 355.333 167.773 343.787Z" fill="#7A9767"/>
<path d="M194.173 376.427C192.746 367.467 191.386 358.453 188.813 349.733C187.586 360.347 186.613 371.053 189.493 381.507C190.44 391.147 189.546 400.827 189.08 410.48C187.36 408.453 185.64 406.44 183.906 404.427C188.493 427.52 192.813 450.64 193.599 474.213C194.879 469.253 196.96 464.307 196.48 459.067C195.266 442.707 194.24 426.253 194.946 409.853C191.066 398.867 196.346 387.56 194.173 376.427Z" fill="#6D8A64"/>
<path d="M180.639 358.147C179.986 359.4 178.666 361.907 178.013 363.147C179.733 376.933 181.133 390.8 183.906 404.427C185.639 406.44 187.359 408.453 189.079 410.48C189.546 400.827 190.439 391.147 189.493 381.507C188.559 382.613 186.706 384.88 185.786 385.987C183.319 376.853 182.106 367.467 180.639 358.147Z" fill="#84A47B"/>
<path d="M246.946 366.253C246.253 364.493 245.546 362.733 244.839 360.986C242.786 373.266 235.093 383.32 229.773 394.28C223.173 407.333 213.279 419.986 214.266 435.453C222.266 412.906 232.306 390.893 245.959 371.133C247.492 372.093 250.599 374.026 252.119 374.986C250.212 390.16 246.932 405.12 243.319 419.946C246.826 416.56 250.133 412.907 252.413 408.6C253.586 403.813 254.426 399 255.452 394.226C255.932 398.04 256.439 401.853 256.919 405.68C258.959 402.453 260.986 399.226 262.813 395.88C262.533 388.706 258.493 382.4 255.839 375.933C253.719 371.987 250.359 369.013 246.946 366.253Z" fill="#ACC19F"/>
<path d="M123.053 385.373C116.013 378.28 108.226 371.786 99.7592 366.413C99.0526 366.266 97.666 365.973 96.9727 365.826C103.013 374.133 108.973 382.493 116.039 389.973C118.386 388.44 120.733 386.893 123.053 385.373Z" fill="#739063"/>
<path d="M207.453 415.4C207.413 399.373 207.293 382.973 201.906 367.68C197 381.267 199.346 396.107 194.946 409.853C194.24 426.253 195.266 442.707 196.48 459.067C196.96 464.307 194.879 469.253 193.599 474.213C194.173 486.413 194.946 498.667 193.546 510.867C191.466 525.84 196.933 540.32 198.199 555.133C199.519 557.613 200.933 560.04 202.359 562.467C203.599 559.267 204.84 556.04 205.973 552.813C203.306 519.56 204.333 485.973 208.959 452.933C211.306 439.813 211.346 426.28 215.626 413.533C215.266 412.24 214.559 409.64 214.199 408.347C212.813 410.84 211.453 413.333 210.173 415.933C208.333 429.72 207.493 443.813 203.386 457.187C203.346 443.12 207.146 429.427 207.453 415.4Z" fill="#445E3F"/>
<path d="M210.013 372.413C208.32 381.813 208.467 391.453 209.653 400.907C210.053 397.68 210.52 394.493 210.973 391.307C211.84 391.187 213.547 390.907 214.413 390.76C214.493 384.333 214.28 377.627 210.013 372.413Z" fill="#7B9E6B"/>
<path d="M142.039 373.227C140.466 373.453 137.306 373.92 135.732 374.173C136.212 381.52 138.746 389.533 135.172 396.48C132.946 395.893 131.026 394.573 129.599 392.813C127.412 390.32 125.306 387.813 123.052 385.373C120.732 386.893 118.386 388.44 116.039 389.973C125.639 399.213 135.106 408.693 146.426 415.907C147.386 412.8 148.346 409.707 149.186 406.587C149.999 403.187 150.839 399.813 151.759 396.48C152.492 393.693 153.186 390.96 153.879 388.213C153.612 385.44 153.292 382.693 152.959 379.96C149.839 381.107 146.732 382.28 143.532 383.2C142.906 380.387 142.626 377.507 142.226 374.667L142.039 373.227Z" fill="#4D7340"/>
<path d="M157.48 379.346C156.346 382.32 155.053 385.226 153.88 388.213C153.186 390.96 152.493 393.693 151.76 396.48C152.746 393.573 153.8 390.707 154.88 387.867C162.28 402.587 166.573 418.76 169.573 434.907C161.213 427.12 148.12 419.653 149.186 406.586C148.346 409.706 147.386 412.8 146.426 415.907L146.106 416.893C153.146 425.253 162.306 431.6 169.066 440.173C175.026 455.693 175.8 472.56 179.573 488.68C181.96 498.693 182.706 509.173 186.653 518.76C188.133 508.813 184.786 498.707 187.36 488.907C184.653 476.88 181.893 464.866 178.786 452.946C171.813 428.4 161.146 404.733 157.48 379.346Z" fill="#859A7C"/>
<path d="M36.5063 389.333C35.5196 385.653 34.7863 381.067 30.6529 379.64C30.0929 384.267 30.1996 388.96 30.3463 393.653C27.0796 391.92 23.5996 390.6 19.9463 389.827C24.1996 398.08 25.8396 407.4 24.773 416.627C27.773 419.893 31.013 422.907 34.3463 425.813C34.5196 422.84 34.613 419.867 34.6796 416.907C31.6263 409.92 29.0396 402.747 26.7463 395.493C29.3196 397.787 31.853 400.093 34.373 402.44C34.893 398.773 35.3996 395.12 36.0796 391.493L36.5063 389.333Z" fill="#E6F2D8"/>
<path d="M47.399 387.68C46.2923 387.12 44.0523 385.96 42.9323 385.4C42.919 391.08 43.6923 396.72 45.0523 402.226C42.8123 400.946 40.5456 399.706 38.2656 398.493C40.1856 404.866 42.3857 411.333 46.7857 416.52C47.4657 410.48 47.8391 404.44 48.1724 398.413C49.4924 403.773 50.7457 409.2 51.2391 414.733C51.8391 420.64 52.9057 426.533 54.4124 432.293C54.7324 426.973 55.0256 421.653 55.4656 416.346C56.0256 417.56 57.119 419.986 57.6656 421.213C58.799 421.88 61.039 423.24 62.1457 423.906C63.679 415.2 63.719 406.333 64.879 397.6C66.2124 406.146 67.1723 414.88 65.8523 423.506C65.039 428.693 64.4524 434.026 66.2124 439.106C70.9724 429.92 70.799 419.4 72.2923 409.426C75.2256 409.093 78.159 408.76 81.0656 408.453C79.8923 404.28 79.919 399.213 76.5857 396.066C73.8657 396.373 71.159 396.946 68.4523 397.453C66.4257 394.466 64.599 391.24 61.7457 388.946C57.2257 394.2 61.7057 402.346 61.4391 408.746C56.6657 401.76 52.159 394.626 47.399 387.68Z" fill="#E9F2DC"/>
<path d="M36.0794 391.493C35.3994 395.12 34.8928 398.773 34.3728 402.44C31.8528 400.093 29.3194 397.787 26.7461 395.493C29.0394 402.747 31.6261 409.92 34.6794 416.907C35.8394 419.307 37.0661 421.693 38.1861 424.147C38.1194 422.507 37.946 419.24 37.866 417.6C40.7993 420.16 43.706 422.76 46.5993 425.373C48.2127 421.84 49.8528 418.32 51.2395 414.733C50.7461 409.2 49.4928 403.773 48.1728 398.413C47.8395 404.44 47.4661 410.48 46.7861 416.52C42.3861 411.333 40.186 404.867 38.266 398.493C37.546 396.147 36.8128 393.827 36.0794 391.493Z" fill="#BAD0A3"/>
<path d="M256.919 405.68C256.439 401.853 255.932 398.04 255.452 394.227C254.426 399 253.586 403.813 252.412 408.6C250.786 415.28 247.959 421.627 246.572 428.4C248.666 437.4 246.052 446.373 245.186 455.36C248.879 446.893 250.999 437.867 252.772 428.853C252.839 423.093 255.879 418.187 259.159 413.707C260.039 416.96 260.905 420.2 261.599 423.533C263.172 414.373 262.732 405.093 262.812 395.88C260.986 399.227 258.959 402.453 256.919 405.68Z" fill="#7F9E73"/>
<path d="M64.8794 397.6C63.7194 406.333 63.6794 415.2 62.1461 423.907C61.0394 423.24 58.7993 421.88 57.666 421.213C58.906 424.733 60.0127 428.293 60.826 431.933C61.9594 437.493 61.8127 443.733 65.8527 448.213C71.3061 438.747 72.106 427.72 73.426 417.16C75.1194 425.333 76.1193 433.627 76.3993 441.987C76.5593 444.24 76.9195 448.72 77.1061 450.987C79.9328 442.187 78.9994 432.853 79.4927 423.76C80.106 431.6 80.8661 439.493 79.8794 447.333L82.0927 449.493C83.1594 437.293 82.4128 425.08 81.3461 412.907C81.2794 411.8 81.1327 409.56 81.066 408.453C78.1593 408.76 75.226 409.093 72.2927 409.427C70.7994 419.4 70.9728 429.92 66.2128 439.107C64.4528 434.027 65.0394 428.693 65.8527 423.507C67.1727 414.88 66.2128 406.147 64.8794 397.6Z" fill="#D5E9C0"/>
<path d="M21.7333 413.373C19.3867 407.253 13.0534 404.28 7.32005 402.093C2.60005 404.133 7.17339 407.333 8.72005 409.96C5.82672 410.8 2.92 411.693 0 412.64C2.37333 415.4 4.74677 418.146 7.17344 420.853L8.38672 420.626C9.22672 420.48 10.9201 420.16 11.7867 420.013C15.8667 420.973 19.8267 422.386 23.76 423.76C21.7067 420.053 19.7067 416.346 17.7333 412.613C18.7333 412.8 20.7467 413.187 21.7333 413.373Z" fill="#F0F6E6"/>
<path d="M252.413 408.6C250.133 412.906 246.826 416.56 243.32 419.946C236.96 438.813 234.546 458.613 229.373 477.786C229.453 482.2 229.706 486.64 229.773 491.106C232.133 483.946 235.066 476.986 237.013 469.706C239.786 455.84 242.973 442.08 246.573 428.4C247.96 421.626 250.786 415.28 252.413 408.6Z" fill="#8FAA81"/>
<path d="M97.2256 427.76C96.599 422.533 96.3456 417.08 93.8257 412.32C92.7857 418.426 92.359 424.92 88.2124 429.88C87.519 423.64 85.559 417.667 81.3457 412.907C82.4124 425.08 83.159 437.293 82.0923 449.493C85.319 452.68 88.0924 456.267 90.8391 459.84C92.9724 449.893 93.7057 439.746 94.3724 429.626C95.1457 436.146 95.799 442.68 96.0523 449.267C99.3857 442.52 97.879 434.893 97.2256 427.76Z" fill="#E7EEDA"/>
<path d="M21.7333 413.373C20.7467 413.187 18.7333 412.8 17.7333 412.613C19.7067 416.347 21.7067 420.053 23.76 423.76C19.8267 422.387 15.8667 420.973 11.7867 420.013C10.9201 420.16 9.22672 420.48 8.38672 420.627C11.0001 422.773 13.2267 426.053 16.8667 426.44C24.4533 427.307 30.3201 432.587 37.1068 435.52C35.8134 432.88 34.4668 430.32 33.1068 427.747C35.2534 428.493 37.3868 429.253 39.5068 430.027C39.1601 428.547 38.5201 425.613 38.1867 424.147C37.0667 421.693 35.8401 419.307 34.6801 416.907C34.6134 419.867 34.5201 422.84 34.3467 425.813C31.0134 422.907 27.7734 419.893 24.7734 416.627C24.0134 415.8 22.5067 414.173 21.7333 413.373Z" fill="#D5E3C4"/>
<path d="M261.6 423.533C260.906 420.2 260.04 416.96 259.16 413.707C255.88 418.187 252.84 423.093 252.773 428.853C254.973 440.573 250.64 452.387 253.493 464.093C258.333 451.133 259.586 437.133 261.6 423.533Z" fill="#617D59"/>
<path d="M51.2399 414.733C49.8532 418.32 48.2131 421.84 46.5998 425.373C43.7065 422.76 40.7998 420.16 37.8665 417.6C37.9465 419.24 38.1199 422.506 38.1865 424.146C38.5199 425.613 39.1599 428.546 39.5066 430.026C37.3866 429.253 35.2532 428.493 33.1066 427.746C34.4666 430.32 35.8132 432.88 37.1066 435.52C30.3199 432.586 24.4531 427.307 16.8665 426.44C23.2398 431.96 30.4932 436.333 36.7732 441.946C26.7466 439.733 17.1465 435.64 6.87988 434.413C9.58655 436.253 12.3865 438.053 15.5331 439.04C26.6798 441.8 37.0131 447.106 48.1998 449.76C46.0398 445.453 42.8265 441.867 39.2532 438.707C41.2132 439.013 43.1465 439.333 45.0932 439.64C44.4932 436.587 43.8532 433.547 43.2532 430.533C48.3065 432.213 52.9065 434.866 56.9331 438.32C58.2531 436.186 59.5465 434.053 60.8265 431.933C60.0132 428.293 58.9065 424.733 57.6665 421.213C57.1198 419.986 56.0265 417.56 55.4665 416.346C55.0265 421.653 54.7332 426.973 54.4132 432.293C52.9065 426.533 51.8399 420.64 51.2399 414.733Z" fill="#90B279"/>
<path d="M73.4258 417.16C72.1058 427.72 71.3059 438.747 65.8525 448.213C67.8125 448.28 69.7592 448.36 71.6792 448.427C73.2526 446.267 74.8258 444.107 76.3992 441.987C76.1192 433.627 75.1192 425.333 73.4258 417.16Z" fill="#A8C193"/>
<path d="M79.8796 447.333C80.8663 439.493 80.1062 431.6 79.4929 423.76C78.9996 432.853 79.933 442.187 77.1063 450.987C76.9196 448.72 76.5595 444.24 76.3995 441.987C74.8262 444.107 73.253 446.267 71.6796 448.427C69.7596 448.36 67.8129 448.28 65.8529 448.213C61.8129 443.733 61.9596 437.493 60.8262 431.933C59.5462 434.053 58.2529 436.187 56.9329 438.32C52.9062 434.867 48.3063 432.213 43.2529 430.533C43.8529 433.547 44.4929 436.587 45.0929 439.64C43.1462 439.333 41.2129 439.013 39.2529 438.707C42.8263 441.867 46.0395 445.453 48.1995 449.76C56.5995 452.4 64.5195 456.493 71.9329 461.227C72.3062 459.573 73.0396 456.24 73.4262 454.587C76.0796 457.333 78.7596 460.08 81.4262 462.827C82.8529 463.107 85.6796 463.653 87.1063 463.933C84.4396 459.8 81.5729 455.827 78.9329 451.72C79.1595 450.627 79.6263 448.427 79.8796 447.333Z" fill="#658B50"/>
<path d="M253.493 464.093C250.639 452.387 254.973 440.573 252.773 428.853C250.999 437.867 248.879 446.893 245.186 455.36C246.053 446.373 248.666 437.4 246.573 428.4C242.973 442.08 239.786 455.84 237.013 469.707C240.559 467.093 244.053 464.427 247.533 461.773C245.613 471.68 243.613 481.787 245.039 491.92C248.919 483.067 252.213 473.693 253.493 464.093Z" fill="#4D6E47"/>
<path d="M48.1999 449.76C37.0132 447.106 26.6799 441.8 15.5332 439.04C17.8932 441.987 20.9199 444.253 24.0133 446.347C22.4399 448 20.88 449.68 19.3066 451.36C25.3333 454.56 31.7333 457.04 38.1866 459.24C37.4533 461.547 36.6932 463.84 35.9332 466.173C45.8932 468.973 56.1199 470.973 66.4665 471.493C59.8265 466.506 52.2399 463.093 44.7199 459.653C57.6266 460.12 68.5999 467.893 80.7999 471.307C78.0932 467.72 75.1865 464.306 71.9332 461.226C64.5199 456.493 56.5999 452.4 48.1999 449.76Z" fill="#E5F1D1"/>
<path d="M386.27 442.686C382.114 441.912 380.683 445.725 380.683 449.161C381.578 448.532 383.367 447.296 384.261 446.667C381.963 453.644 378.757 460.244 375.661 466.887C377.546 467.097 381.316 467.537 383.201 467.746C384.743 465.378 386.421 463.136 388.128 460.915C387.013 466.678 385.733 472.441 384.44 478.202C388.609 475.082 392.82 472.015 397.127 469.129C392.325 475.868 387.151 482.335 382.156 488.909C388.541 487.081 394.967 485.455 401.558 484.548C393.55 489.202 384.963 492.734 376.665 496.856C374.133 498.082 371.615 499.401 369.11 500.749C380.257 502.734 391.031 498.921 402.04 498.148C409.099 497.775 416.571 494.855 420.301 488.548C413.805 488.909 407.861 491.949 401.407 492.656C401.71 491.508 402.26 489.202 402.563 488.056C409.43 485.508 417.81 484.282 422.53 478.162L421.801 476.268C412.567 476.856 403.911 480.815 394.733 481.869C397.458 471.935 406.264 465.421 411.948 457.207C407.214 456.389 402.439 455.822 397.636 455.803C398.146 452.576 401.421 448.239 397.017 446.479C393.494 448.91 390.371 451.863 387.178 454.756C386.999 450.712 386.848 446.667 386.27 442.686Z" fill="#E7F2DA"/>
<path d="M375.655 466.89C378.752 460.248 381.945 453.648 384.257 446.672C383.365 447.294 381.579 448.538 380.687 449.16C380.146 449.945 379.104 451.491 378.604 452.266C376.575 455.492 374.559 458.761 372.517 462.007C371.989 460.856 370.907 458.531 370.393 457.379C367.675 463.181 365.186 469.133 363.306 475.272C364.307 477.152 365.321 479.046 366.322 480.952C367.08 480.859 368.621 480.699 369.392 480.619C369.839 483.205 370.312 485.871 370.759 488.539C371.624 487.378 373.356 485.126 374.208 483.992L373.017 482.818C370.759 477.432 373.87 471.899 375.655 466.89Z" fill="#BECFA1"/>
<path d="M354.012 452.09C352.933 449.85 351.8 447.61 350.639 445.398C349.385 448.069 348.467 450.875 347.685 453.752C343.732 452.602 341.276 455.156 339.293 458.255C338.011 456.37 336.73 454.464 335.421 452.616C332.777 455.197 330.686 458.255 332.453 462.047C333.397 465.925 334.396 469.804 335.34 473.696C335.866 470.869 336.392 468.062 336.946 465.254C337.944 468.983 338.969 472.737 339.671 476.563C340.507 471.669 340.993 466.741 341.506 461.818C342.045 461.21 343.152 459.994 343.732 459.388C343.921 465.149 344.393 470.937 345.189 476.657C346.174 472.63 347.105 468.606 348.022 464.584C348.912 469.403 349.897 474.203 350.599 479.083C351.894 474.43 353.108 469.777 354.43 465.169C354.511 476.404 353.216 487.55 351.746 498.67C356.198 491.177 360.893 483.71 363.308 475.27C365.196 469.13 367.679 463.179 370.391 457.377C370.917 458.529 371.996 460.855 372.509 462.006C374.573 458.76 376.583 455.491 378.607 452.265C375.787 451.347 373.021 450.336 370.121 449.729C367.881 452.913 367.207 457.502 363.416 459.367C360.191 457.628 359.355 453.794 357.655 450.835C356.737 451.159 354.93 451.779 354.012 452.09Z" fill="#EDF4DD"/>
<path d="M81.426 462.827C78.7593 460.08 76.0793 457.333 73.426 454.587C73.0393 456.24 72.306 459.573 71.9326 461.227C75.186 464.307 78.0926 467.72 80.7993 471.307C81.5726 472.373 83.106 474.493 83.8794 475.56C85.4127 477.76 86.8926 479.973 88.3593 482.267C86.5326 482.52 82.866 483.04 81.0527 483.307C81.386 483.733 82.0394 484.573 82.3727 485.013C83.7994 485.2 86.626 485.573 88.026 485.76C92.386 489.64 96.786 493.453 101.346 497.093C101.253 496.453 101.013 495.147 100.906 494.507C100.199 488.84 97.1194 482.933 100.346 477.507C92.106 476.947 94.4794 465.52 87.1061 463.933C85.6794 463.653 82.8526 463.107 81.426 462.827Z" fill="#4A703D"/>
<path d="M343.733 459.387C343.16 459.987 342.053 461.2 341.506 461.813C341 466.733 340.52 471.667 339.68 476.56C339.226 479.16 338.466 481.693 337.733 484.253C336.893 483.267 335.24 481.293 334.4 480.32C333.84 483.453 333.32 486.6 332.986 489.8C334.866 490.493 336.8 491.173 338.68 491.907C343.333 488.4 349.6 485.453 350.6 479.08C349.906 474.2 348.92 469.4 348.026 464.573C347.106 468.6 346.186 472.627 345.2 476.653C344.4 470.933 343.933 465.147 343.733 459.387Z" fill="#C7D8B3"/>
<path d="M80.7991 471.307C68.5991 467.893 57.6258 460.12 44.7191 459.653C52.2391 463.093 59.8258 466.507 66.4658 471.493C56.1191 470.973 45.8924 468.973 35.9324 466.173C31.9591 465.067 27.9192 464.307 23.8125 463.827C27.7725 466.147 31.8924 468.2 36.3591 469.32C43.6124 471.24 50.7725 473.467 58.0392 475.293C66.5859 473.28 74.9324 476.587 83.2658 477.987L83.8792 475.56C83.1058 474.493 81.5724 472.373 80.7991 471.307Z" fill="#9AB187"/>
<path d="M388.13 460.915C386.426 463.136 384.749 465.377 383.195 467.745C380.114 472.962 376.952 478.161 373.026 482.814L374.212 483.988C375.738 485.388 377.292 486.815 378.819 488.255C376.693 490.188 374.539 492.134 372.412 494.108C373.475 494.775 375.602 496.161 376.665 496.855C384.954 492.734 393.556 489.201 401.558 484.548C394.973 485.455 388.539 487.081 382.159 488.908C387.162 482.334 392.329 475.868 397.127 469.129C392.819 472.015 388.607 475.082 384.436 478.201C385.731 472.441 387.012 466.678 388.13 460.915Z" fill="#A4BE8B"/>
<path d="M247.533 461.773C244.053 464.427 240.56 467.093 237.013 469.707C235.066 476.987 232.133 483.947 229.773 491.107C229.773 492.093 229.773 494.04 229.773 495.027C229.813 496.973 229.88 498.947 229.933 500.933C227.133 496.027 224.4 491.107 221.813 486.12C217.64 510.427 214.48 534.96 211.413 559.453C212.693 560.12 215.293 561.467 216.573 562.133C217.746 565.587 218.92 569.053 220.093 572.52C226.253 560.267 228.893 546.773 232.826 533.747C233.733 518.973 242.44 506.187 245.04 491.92C243.613 481.787 245.613 471.68 247.533 461.773Z" fill="#384F36"/>
<path d="M335.346 473.693C334.399 469.8 333.399 465.92 332.453 462.04C331.573 464.307 331.026 466.627 330.799 469.067L330.626 471.24C331.453 480.733 327.906 489.76 327.239 499.133C327.759 500.12 328.786 502.107 329.319 503.093C330.106 501.933 331.706 499.653 332.493 498.507C332.693 495.587 332.839 492.68 332.986 489.8C333.319 486.6 333.839 483.453 334.399 480.32C335.239 481.293 336.892 483.267 337.732 484.253C338.466 481.693 339.226 479.16 339.679 476.56C338.973 472.733 337.946 468.973 336.946 465.253C336.399 468.053 335.866 470.867 335.346 473.693Z" fill="#D5E6C0"/>
<path d="M354.435 465.168C353.112 469.776 351.899 474.429 350.59 479.083C349.594 485.456 343.322 488.403 338.673 491.909C336.791 491.176 334.855 490.496 332.987 489.801C332.837 492.683 332.687 495.59 332.482 498.509C336.887 494.402 342.75 493.269 348.572 493.123C346.949 495.523 345.354 497.895 343.745 500.35C350.876 501.162 358.062 500.722 365.138 499.536C364.238 502.883 363.352 506.256 362.507 509.628C367.484 510.535 372.515 511.349 377.519 512.149C375.787 510.735 374.042 509.376 372.283 508.015C375.719 507.936 379.155 507.856 382.591 507.789C381.282 506.483 380.001 505.23 378.692 503.989C383.041 502.949 387.336 501.935 391.659 500.909C395.136 500.056 398.599 499.136 402.035 498.149C391.031 498.922 380.26 502.736 369.12 500.749C371.601 499.402 374.124 498.082 376.66 496.856C375.597 496.162 373.469 494.776 372.406 494.109C374.547 492.136 376.687 490.189 378.828 488.255C377.287 486.815 375.746 485.389 374.206 483.989C373.36 485.122 371.629 487.376 370.77 488.536C370.32 485.869 369.842 483.202 369.392 480.616C368.615 480.696 367.088 480.856 366.325 480.95C365.329 479.042 364.32 477.15 363.311 475.269C360.884 483.709 356.194 491.176 351.735 498.668C353.221 487.549 354.517 476.402 354.435 465.168Z" fill="#82A166"/>
<path d="M383.192 467.749C381.313 467.54 377.541 467.099 375.662 466.889C373.877 471.898 370.768 477.43 373.012 482.818C376.946 478.164 380.11 472.965 383.192 467.749Z" fill="#CEE0B7"/>
<path d="M330.8 469.067C327.853 472.44 324.707 475.707 320.907 478.173C319.947 474.787 318.96 471.387 317.933 468.04C309.32 474.2 303.773 485.68 307.693 496.067C309.173 501.187 309.787 506.48 310.187 511.787C311.72 499.093 314.773 486.64 316.72 474.027C316.413 486.08 315.733 498.147 315.88 510.213C325.36 499.347 327.707 484.84 330.627 471.24L330.8 469.067Z" fill="#F1F8E6"/>
<path d="M58.0401 475.293C50.7734 473.467 43.6134 471.24 36.36 469.32C35.0534 472.067 33.6934 474.787 32.6934 477.68C34.3867 478.907 36.2934 479.44 38.4134 479.24C49.1867 478.56 59.4268 482.707 70.1068 482.827C67.8668 478.32 62.0668 477.573 58.0401 475.293Z" fill="#ECF8E4"/>
<path d="M83.2663 477.987C74.933 476.587 66.5864 473.28 58.0398 475.293C62.0664 477.573 67.8664 478.32 70.1064 482.827C59.4264 482.707 49.1864 478.56 38.4131 479.24C46.9864 481.107 55.1997 484.213 63.5597 486.813C69.9597 488.8 76.7064 487.12 83.1064 485.947L82.3731 485.013C82.0398 484.573 81.3864 483.733 81.0531 483.307C82.8664 483.04 86.533 482.52 88.3597 482.267C86.893 479.973 85.4131 477.76 83.8797 475.56L83.2663 477.987Z" fill="#668458"/>
<path d="M193.546 510.867C191.399 503.547 189.253 496.253 187.359 488.907C184.786 498.707 188.133 508.813 186.653 518.76C187.786 531.693 191.839 544.307 191.906 557.413C192.333 562.827 192.719 568.227 193.079 573.653C199.866 570.013 197.613 561.427 198.199 555.133C196.933 540.32 191.466 525.84 193.546 510.867Z" fill="#75986D"/>
<path d="M348.581 493.115C342.762 493.261 336.902 494.395 332.504 498.501C331.713 499.649 330.117 501.929 329.326 503.088C328.857 503.756 327.918 505.062 327.436 505.702C331.378 506.142 335.32 506.622 339.249 507.009C347.053 507.355 354.843 508.115 362.513 509.621C363.371 506.249 364.243 502.875 365.154 499.528C358.075 500.715 350.888 501.155 343.754 500.342C345.363 497.888 346.972 495.515 348.581 493.115Z" fill="#719056"/>
<path d="M120.12 519.64C113.733 511.24 106.693 503.36 100.906 494.507C101.013 495.147 101.253 496.454 101.346 497.094L101.44 497.68C116.146 514.574 129.799 532.427 141.533 551.507C153.066 568.854 162.213 587.654 173.933 604.894C181.239 615.627 186.96 627.294 193.306 638.587C193.506 637.507 193.893 635.347 194.093 634.254C192.52 625.814 189.013 617.36 191.466 608.707C188.013 598.654 184.306 588.64 182.56 578.094C180.613 569.614 179.719 560.667 176.066 552.707C175.546 552.307 174.493 551.494 173.973 551.094C172.213 569.694 175.759 588.134 179.026 606.36C158.213 578.267 141.68 547.214 120.12 519.64Z" fill="#5B7254"/>
<path d="M391.656 500.91C387.338 501.937 383.034 502.951 378.689 503.99C379.991 505.231 381.28 506.483 382.595 507.791C379.155 507.857 375.714 507.936 372.288 508.017C374.042 509.377 375.783 510.737 377.51 512.15C372.507 511.351 367.49 510.536 362.501 509.63C354.838 508.124 347.039 507.363 339.239 507.017C336.539 508.164 333.853 509.458 331.166 510.737C333.167 510.844 337.142 511.097 339.116 511.23C346.929 511.791 354.372 514.284 361.678 516.857C354.811 516.817 347.848 516.857 341.145 518.577C348.643 520.177 356.209 521.724 363.145 525.098C358.882 526.283 354.633 527.55 350.411 528.884C355.03 530.057 359.677 531.27 364.337 532.324C368.71 533.684 373.165 532.55 377.25 530.897C373.371 527.564 369.258 524.551 365.05 521.657C374.961 521.511 385.131 521.51 394.027 516.564C395.247 514.577 396.426 512.63 397.632 510.683C403.074 509.444 408.516 508.043 413.793 506.243C407.337 504.19 400.607 504.311 393.945 504.19C393.383 503.364 392.232 501.736 391.656 500.91Z" fill="#DEE9CD"/>
<path d="M339.24 507.013C335.306 506.627 331.373 506.147 327.426 505.707C320.893 512.24 311.36 515.387 306.56 523.707C307.653 523.64 309.8 523.533 310.88 523.48C314.546 523.12 318.253 523.094 321.706 524.507C325.88 523.054 330.026 521.574 334.16 520.067L336 519.374C335.16 518.76 333.466 517.52 332.6 516.92C334.786 515.013 336.96 513.08 339.12 511.227C337.146 511.093 333.173 510.84 331.173 510.734C333.853 509.454 336.546 508.16 339.24 507.013Z" fill="#4C6C3A"/>
<path d="M361.683 516.851C354.378 514.278 346.939 511.784 339.124 511.224C336.966 513.078 334.795 515.011 332.61 516.918C333.468 517.517 335.17 518.759 336.001 519.371L334.165 520.064C336.068 521.53 337.958 523.012 339.888 524.518C335.813 526.198 331.725 527.892 327.65 529.612C339.164 535.064 352.112 533.385 364.35 532.318C359.686 531.264 355.048 530.051 350.423 528.878C354.646 527.545 358.895 526.278 363.144 525.092C356.214 521.718 348.654 520.171 341.148 518.571C347.863 516.851 354.82 516.811 361.683 516.851Z" fill="#AEC395"/>
<path d="M334.159 520.067C330.026 521.573 325.879 523.053 321.706 524.507C323.679 526.227 325.666 527.893 327.653 529.613C331.719 527.893 335.813 526.2 339.879 524.52C337.959 523.013 336.066 521.533 334.159 520.067Z" fill="#86A16B"/>
<path d="M232.826 533.747C228.892 546.773 226.252 560.267 220.092 572.52C218.919 569.053 217.746 565.587 216.572 562.133C215.292 561.467 212.692 560.12 211.412 559.453C210.466 570.187 210.092 580.947 210.519 591.72C210.972 593.373 211.879 596.68 212.319 598.347C213.839 590.293 214.279 582.08 215.746 574.04C216.252 579.333 216.652 584.64 216.919 589.973C217.359 587.533 217.866 585.12 218.439 582.747C219.666 579.067 221.279 575.547 222.999 572.133C228.199 581.12 230.172 591.573 231.532 601.76C230.506 611.44 227.292 620.8 223.292 629.627C223.812 633.84 224.426 638.253 222.332 642.187C221.172 634.413 223.506 625.52 218.039 619C217.852 637.04 219.946 655.48 215.252 673.133C214.052 677.933 212.666 682.693 211.332 687.493C212.146 688.787 213.746 691.387 214.532 692.693C218.532 673.6 222.986 653.107 236.092 638.027C235.599 636.867 234.572 634.573 234.066 633.4C236.479 628.947 238.532 624.253 239.012 619.173C236.412 622.453 233.919 625.893 231.399 629.293C231.466 623.4 231.692 617.507 232.266 611.667C233.079 598.547 232.426 585.413 232.746 572.293C232.466 559.427 233.986 546.573 232.826 533.747Z" fill="#536B4C"/>
<path d="M206.973 565.134C206.64 561.027 206.24 556.92 205.973 552.814C204.84 556.04 203.6 559.267 202.36 562.467C200.933 560.04 199.52 557.614 198.2 555.134C197.613 561.427 199.867 570.014 193.08 573.654C193.12 574.734 193.253 576.827 193.293 577.867C195.12 582.64 197.36 587.24 199.64 591.8C201.253 583.44 202.387 575.014 203.187 566.574C204.44 567.894 205.68 569.254 206.907 570.64C206.933 569.254 206.973 566.52 206.973 565.134Z" fill="#567552"/>
<path d="M282.866 559.68C283.013 559.187 283.28 558.174 283.426 557.667C276.346 566.32 268.293 574.56 263.507 584.787C260.827 591.827 259.147 599.52 254.373 605.52C249.613 610.467 243.226 613.614 239.013 619.174C238.533 624.254 236.48 628.947 234.066 633.4C234.573 634.574 235.6 636.867 236.093 638.027C244.226 631.134 249.626 621.76 255.16 612.814C265.306 595.6 274.146 577.614 282.866 559.68Z" fill="#869E78"/>
<path d="M193.08 573.654C192.72 568.227 192.333 562.827 191.906 557.414C190.466 564 189.546 570.707 188.96 577.427C186.84 577.64 184.706 577.854 182.56 578.094C184.306 588.64 188.013 598.654 191.466 608.707C193.413 614.014 195.466 619.267 197.44 624.587C194.4 609.187 193.36 593.547 193.293 577.867C193.253 576.827 193.12 574.734 193.08 573.654Z" fill="#F3FAEC"/>
<path d="M210.52 591.72C208.8 582.946 208.88 573.893 206.973 565.133C206.973 566.52 206.933 569.253 206.906 570.64C208.12 595.32 213.306 619.907 210.613 644.733C208.333 659.44 209.213 674.306 208.266 689.12C208.466 690.866 208.813 694.386 208.999 696.146C209.786 693.24 210.559 690.346 211.333 687.493C212.666 682.693 214.053 677.933 215.253 673.133C219.946 655.48 217.853 637.04 218.04 619C217.76 612.76 217.493 606.533 217.413 600.293C217.266 596.826 217.026 593.4 216.92 589.973C216.653 584.64 216.253 579.333 215.746 574.04C214.28 582.08 213.84 590.293 212.32 598.346C211.88 596.68 210.973 593.373 210.52 591.72Z" fill="#F3F8F2"/>
<path d="M206.906 570.64C205.68 569.254 204.44 567.894 203.186 566.574C202.386 575.014 201.253 583.44 199.64 591.8C197.36 587.24 195.12 582.64 193.293 577.867C193.36 593.547 194.4 609.187 197.44 624.587C195.466 619.267 193.413 614.014 191.466 608.707C189.013 617.36 192.52 625.813 194.093 634.253C193.893 635.347 193.506 637.507 193.306 638.587C193.506 642.253 195.026 645.8 196.346 649.213C196.786 650.253 197.693 652.373 198.146 653.427C201.426 649.333 205.48 646.054 210.613 644.734C213.306 619.907 208.12 595.32 206.906 570.64Z" fill="#395437"/>
<path d="M231.533 601.76C230.173 591.574 228.2 581.12 223 572.134C221.28 575.547 219.666 579.067 218.44 582.747C219.586 582.374 221.866 581.667 223.026 581.28C224.293 587.107 224.506 593.08 223.466 598.947C221.72 597.814 220 596.707 218.266 595.6C218.053 596.774 217.613 599.12 217.413 600.294C217.493 606.534 217.76 612.76 218.04 619C223.506 625.52 221.173 634.414 222.333 642.187C224.426 638.254 223.813 633.84 223.293 629.627C227.293 620.8 230.506 611.44 231.533 601.76Z" fill="#6B8761"/>
<path d="M223.027 581.28C221.867 581.667 219.587 582.374 218.44 582.747C217.867 585.12 217.36 587.534 216.92 589.974C217.027 593.4 217.267 596.827 217.413 600.293C217.613 599.12 218.053 596.774 218.267 595.6C220 596.707 221.72 597.814 223.467 598.947C224.507 593.08 224.293 587.107 223.027 581.28Z" fill="#8DA47C"/>
<path d="M263.506 584.787C251.44 593.853 243.319 606.747 234.026 618.374C233.586 616.694 232.706 613.347 232.266 611.667C231.693 617.507 231.466 623.4 231.399 629.293C233.919 625.893 236.413 622.454 239.013 619.174C243.226 613.614 249.613 610.467 254.373 605.52C259.146 599.52 260.826 591.827 263.506 584.787Z" fill="#BED2AF"/>
<path d="M210.613 644.734C205.48 646.054 201.426 649.333 198.146 653.427C197.693 652.373 196.786 650.254 196.346 649.214C198.066 683.694 196.813 718.334 193.6 752.694C193.4 762.654 190.693 772.454 191.106 782.427C193.106 789.027 193.066 795.947 193.693 802.747C195.28 805.68 199.013 805.48 201.813 806.333C204.226 777.707 207.2 749.067 209.133 720.467C204.8 710.48 206.2 699.453 208.266 689.12C209.213 674.307 208.333 659.44 210.613 644.734Z" fill="#4A6344"/>
<path d="M211.332 687.493C210.559 690.347 209.786 693.24 208.999 696.147C208.812 694.387 208.466 690.867 208.266 689.12C206.199 699.453 204.799 710.48 209.132 720.467C211.666 711.36 212.732 701.947 214.532 692.693C213.746 691.387 212.146 688.787 211.332 687.493Z" fill="#647E64"/>
</svg>
